<svg id="b2205fdb-0db0-4a4c-a56c-a50124717c3e" data-name="Layer 1" xmlns="http://www.w3.org/2000/svg" xmlns:xlink="http://www.w3.org/1999/xlink" viewBox="0 0 1920 1080">
  <defs>
    <clipPath id="bbd4fe4a-46ad-46a4-9707-b6652eb1defa">
      <rect x="-1194" y="-590" width="5384" height="5433" style="fill: none"/>
    </clipPath>
    <clipPath id="e337dfc7-3996-4104-9813-8b0a0dc2816b">
      <rect x="-1095" y="-595" width="5396" height="5443" style="fill: none"/>
    </clipPath>
  </defs>
  <title>map1</title>
  <g style="opacity: 0.5">
    <g style="clip-path: url(#bbd4fe4a-46ad-46a4-9707-b6652eb1defa)">
      <g style="clip-path: url(#e337dfc7-3996-4104-9813-8b0a0dc2816b)">
        <path d="M2619.33,493.46a23.85,23.85,0,0,1-13.87,4.69,23.49,23.49,0,0,1-10.54-2.44c-8.73-2.81-14.55-2.79-21.34.18l-3.93,2-2.9,2-24.88,9.2a.61.61,0,0,1-.19,0h-2a.56.56,0,0,1-.33-.1l-.06-.06h0c-3-2-4.31-5.18-3.14-7.59.87-3.15.71-6-.5-8a6.51,6.51,0,0,0-4.16-3h-.09l-27.79-14.59h-1.83c-9.13.07-14.33-1-17.45-7.14h0l-2-4.94a.43.43,0,0,1,0-.16l-2.12-17.83a.56.56,0,0,1,.15-.48l3-3,1.9-2.9a.46.46,0,0,1,.17-.17l15.68-10,6.76-11.84a.74.74,0,0,1,.37-.28l4-1,30.75-6.22c17.92-5.1,34-3.26,49.09,5.64l.05.06c0,.06,0,0,.07,0l11.88,11.69,8.78,1.87,4,1a.56.56,0,0,1,.42.38l3,8.92,4.13,18.87.23,25.92C2624.48,488.3,2623.34,490.42,2619.33,493.46ZM2368.08,832.13h.05c.87,2.59,1.67,5.08,2.47,7.56a155.47,155.47,0,0,0,6.62,18.1l5.92,10.64,2.62.85,9.58-2,16.49-17.75.92-3.75c-1-12.33,4.13-19.15,16.16-21.45l5.89-2,14.89-4.1,5.69-2.92,8.77-11.88.2-.12c.07,0,.13-.09.2-.1h0l9.93-1.06c.24-.1.52.12.61.36l3,7.92v.11c1,6,0,10.13-3,12.32l-5.74,17.73c0,9.32-4.21,14.41-9,19.22h0l-18.64,16.94-.94,1.9-.07.06c-.07.06,0,.11-.1.15-1.6,1.21-2.37,2.65-2.23,4.09a5.22,5.22,0,0,0,3.2,3.83c.06,0,.06.08.11.12s.08,0,.1,0l9,11.85a.56.56,0,0,1-.17.85l-6.92,4a.43.43,0,0,1-.29.08h-2l-11.87-1.88c-5.23,1.82-7.39,4.21-6.32,13.29h0l-.71,32.73c0,5.88,2.1,10.64,5.81,13.38v.09c0,.09.07,0,.09,0l2,2.9c2,1.49,3,3,3.15,4.63.15,1.86-.83,3.8-3.08,6.09h0l-4.91,4h-.09c-2.06,1-.95,5,.34,8.19,2.09,5.09,4,8.67,6.68,9.52h0l2,1a.74.74,0,0,1,.2.23.4.4,0,0,1,.1.13h0c1.42,5,1.24,8.51-.56,10.61-1.31,1.53-3.43,2.3-6.55,2.32a28.65,28.65,0,0,1-3.34-.2h-.16l-2-1-.2-.14-35-40.35-9.94-6.83L2367,952.48v-.09s0,0-.05,0c-6.07-10.7-7.84-21.52-5.28-32.13h0l1.95-6h0c2.52-5.14,3.75-11.33,3.75-19-20.47,3.15-32.32,14.12-37.25,34.43v2.9a.17.17,0,0,1-.08.17c-.08.06,0,.12,0,.17-7.66,10.72-6.68,19.29,3.08,27l.05.07c0,.07.06,0,.07.06l11,15.78a.65.65,0,0,1,.09.51l-2,6a.53.53,0,0,1-.18.28l-8.88,7a.52.52,0,0,1-.18.1l-8.9,3h-.2c-11.72.09-23-6.39-29.41-16.92v-.09h0l-2-5.93-3.08-17.62c-4.91-2.3-8.68-1.33-11.89,3h-.06v.08l-13.81,11a.62.62,0,0,1-.34.13l-20.84,1.15h-.19l-12.92-3.86a.54.54,0,0,1-.36-.3l-1-2a.54.54,0,0,1,0-.28l.58-49.61v-.14c1-4.13,4.1-7.26,7.26-7.41l5.7-3.88c2.49-3.39,4.77-9.09,1.79-17l-1.77-.86-3-1.93c-3.91,0-6.26-2-6.34-5.37h0l-4.18-27.75v-2.06l-1-4.84v-.07h0a.25.25,0,0,1,.07-.17,1.18,1.18,0,0,1,.07-.2l.17-.12c.06,0,.09-.09.16-.1h.07c3.83,0,5.69-2.53,8.52-6.33.56-.76,1.17-1.56,1.81-2.39l5.82-13.87a.5.5,0,0,1,.13-.19l2-2s.11,0,.14-.06a.23.23,0,0,1,.16-.1c5.55-1.14,9.53.28,11.53,4.11h0l7,9.86,1.77,1.75,23.61,1.76L2320.7,827l7.64-3.91.87-1.73a5.76,5.76,0,0,1,2.32-4.8c2.19-1.59,5.57-1.83,9.26-.64h0l7,1.93a.46.46,0,0,1,.16.07l19,11.75a.79.79,0,0,1,.21.24ZM2293.8,969.84,2290.67,952h0ZM2329,930v0Zm849.49,582.4,23.2,45.49,6.2,23.87v.15c0,2.46-.22,10.67-4.06,13.38-4.61,5.57-10,8.35-16.28,8.39a21.74,21.74,0,0,1-2.91-.16l-8.94.07a.55.55,0,0,1-.33-.11l-8.92-6.13c1.8,13.87-1.38,24.2-9.1,29.13a.66.66,0,0,1-.2.06h-.06l-25.57,3.16-1.82,1.85c-7,7.13-14.44,10.36-24.27,10.45-1.27,0-2.55,0-3.9-.13l-16.87-.85h0a.31.31,0,0,1-.19,0c-.82-.39-1.6-.79-2.35-1.19a32.17,32.17,0,0,0-9.46-3.62h-.09s-.11,0-.14-.06l-3.85-2.83-24.38-.79-.82.82a.54.54,0,0,1-.26.16l-4,1h-.26c-12.4-2.37-21.81-11.89-25.26-15.87v-.09h0l-6.06-11.86-3-8.86c-2.92-2.87-5.72-5.55-9.27-4.62l-17.72,7a25.51,25.51,0,0,1-16.4,5.9,30.41,30.41,0,0,1-6.79-.71c-10.75-1.88-21.85-7.65-32.07-16.69l-1.89-.92c-8.07-1-12.2-4.09-13.32-10.11l-2.92-3.85h0c-5.42-8.5-7.09-17.75-5.28-29.15a3.85,3.85,0,0,1,1-3.07c1-.89,2.95-1,6.61-.45l16.83,2.84c8.64-.09,10.56-3.79,11.25-6.57l1.83-15.72-2-6.81-1-1.89v-.13s-.05-.08-.05-.13c0-4.65,1-7.48,2.91-8.41s4.49.08,7.77,2.8l17.59,1.82c3.27-1.15,8.65-4.1,10.41-7.7,0-.06.11-.08.15-.14a.32.32,0,0,1,.18-.14l3-1,6.89-1,11.66-7.89,9.67-14.76.91-5.78c-.06-7.47-3.67-13.25-10.73-17.22l-12.77-4.79-10.75,1.07-6.84,2-13,2.1h0a.55.55,0,0,1-.25-.07.37.37,0,0,1-.18-.08h0c-1.26-1.23-2.55-1.72-3.62-1.44s-1.91,1.44-2.35,3.19v.18l-13.73,22-3,4-29.5,37-2.92,4-14.78,17a.5.5,0,0,1-.19.13l-3.94,2a.58.58,0,0,1-.26.06h-.07l-36.75-3.69a.6.6,0,0,1-.29-.08l-6-3.92h0c-3.7-3.63-7.42-4.75-12.42-3.71a51.25,51.25,0,0,1-37.19-5.72h-.05L2754,1504c-11.51-7.21-16.23-17.42-14.37-31.16l1.76-27.8.92-8a.5.5,0,0,1,.09-.23l6.85-12,4.86-10.9.93-2.93h0c5-10.12,14.07-14.35,24.34-11.42l54.44,7.47,2.78-1.88,20.64-18,13.94-7.13,6.91-4,28.86-8.23h.05c7.38-1,12.13-4.52,17.43-9.9h0l9.62-8.79-2-11.5c-3.1-6.1-3.1-9.25,0-13.42h0v-.06l5.9-5a.57.57,0,0,1,.27-.13l9.91-2.07a.63.63,0,0,1,.38.06l3.89,1.91c10,1.91,16.42-.37,19.08-6.76,2.09-5.35,5.5-6.35,11.42-6.41h0l29.79,1.75a.79.79,0,0,1,.26.08l10,5.88.05.06h0c1.88,1.84,4.74,2.76,8.56,2.73h0l16.87,2.84a25.42,25.42,0,0,1,14.16,3.94h0l.1.11a.63.63,0,0,1,.16.25l2.08,8.91.15,18.56,2.54.82c2.41.45,4.31.16,5.51-.81s1.67-2.5,1.64-4.63c0,0,.05-.06.05-.09v-.1l1-3a.56.56,0,0,1,.36-.36l6-2a.58.58,0,0,1,.58.11.6.6,0,0,1,.17.58l-5.77,23.85v.06h0c-2.57,6.18-3.79,13.58-3.73,22.62l1.13,18.84h0c0,3.06,1.95,4.36,6.41,4.33l25.8-.2a.66.66,0,0,1,.43.15l3,3,11,11.84v.06h0a555.22,555.22,0,0,0,35.09,48.28l5,5.92h0c5.8,7.59,10,14.55,13.19,25.83Zm-431.26-15.5a26,26,0,0,1-6.89-15,25.94,25.94,0,0,0,6.92,15Zm258.29-26.49h0c-.07-7.83-4-14.16-11.36-18.29,7.39,4.08,11.32,10.4,11.39,18.25Zm-70,67.12h0l1.85-15.89Zm390.92,1100.55c4.93,9.63,11.91,18.66,19.17,24.78h.07l13,7.84h0c7.82,3.83,13.81,8.72,17.75,14.54h.06s0,.06.05.08l6,4.91h.07a51.08,51.08,0,0,0,24.51,6,47.53,47.53,0,0,0,10.63-1.26,19.74,19.74,0,0,0,15.25-11.15v-.16l1-5.94c3.23-15.75,8.73-25.12,17.3-29.52h0l7.84-4,37.56-6.25h.08a28.31,28.31,0,0,0,18.06-17.29l8.8-14.95a.36.36,0,0,0,.07-.18l2.85-15.9v-.15l-1.12-15.86a.54.54,0,0,0-.09-.25l-4-6.92h-.06c-.06,0,0-.06,0-.08-7.84-7.71-15.94-10.78-23.37-8.9l-25.79,1.18h0c-1.05,0-2.21.39-2.43,1.29h0l-9.7,17.92h0a56.3,56.3,0,0,0-4.64,11.81c-5.19-6.77-11.49-11.41-21.43-15.82-10.24-4.57-22-6.84-35-6.73l-43.57-3.61-16.77-7.74c-4.29-4.19-8.68-5-15.13-4.91h0a80.33,80.33,0,0,0-47.91,9.38h0l-13.77,8a35.65,35.65,0,0,0-19.93,14.19l-16.71,14h0a64.46,64.46,0,0,0-13.87,20.14v.06h0l-1.93,7.95h0c-1.84,9.64.74,17.92,7.3,23.3h0a.59.59,0,0,0,.38.14h5.17l39.6-13.22h.05c11.83-5.59,25-9.78,41.43-13.19,6.17-1.06,10.73.09,14.39,3.68Zm122.89,203.11c1.77,1.44,4.24,2.14,7.54,2.13a34.78,34.78,0,0,0,5.75-.64h0l23.9-2.19,4-1c4.15-1.08,6.3-2.37,7.17-4.32s.37-4.91-1.94-9.45h0v0l-2-3-.15-.09a.11.11,0,0,0-.09-.1c-10.5-5.15-24.24-7-42-5.69l-.09,0a.68.68,0,0,0-.35.25s-.06,0-.07.1l-5,14.88v.11h0C3446.06,2836.48,3447.13,2839.39,3449.33,2841.19ZM2935.5,2023.6l-2.19-25.73v-5a.54.54,0,0,0,0-.18l-6.14-19.89-2-4a.54.54,0,0,0-.65-.3l-4,1-.16.07-4.87,3-11.77,5h-2c-4.83,1-7.62-2.09-9.28-4.55l-5.12-21.69a.59.59,0,0,0-.18-.28l-5-4.92a.64.64,0,0,0-.25-.15l-30.75-8.66-7.93-4.85h0c-11.86-6.78-21.18-4.37-28.52,7.36h0l-1.9,3.88c-12.82,12-29.42,16.84-48.07,14.06-9.66.08-15.41,2.54-19.2,8.23-2,1.11-4,4-5,6.18v.14l-1.9,10h0c-2,8.25,2.13,15.25,7.29,17.37l23,25.63,30.87,23.5,19,31.43,4,15.61.38,46.64h0c1.14,16.15-4.15,25.49-17.14,30.28-4.45,0-7.3,1.34-9.21,4.16a188.36,188.36,0,0,0-35.49,24.1c-3.72,2.83-6.16,5-6.11,9.44v5a.48.48,0,0,0,.07.26l5,9.89a.6.6,0,0,0,.33.3l9,2.9h.08c7.56,1,14,4.15,17.56,8.58h0l1.91,1.89,8.06,22.63c1.11,5.09,5.23,12.09,10.29,15.1l6,3.92a.62.62,0,0,0,.32.09h0l36.65-4.24h3.15c5.71-1.49,9.59-4,11.21-7.33h0l6.81-12.93a56.74,56.74,0,0,1,18.51-18.79l28.62-12.11a.59.59,0,0,0,.36-.53l.69-38.71h0c0-3.2.05-3.38,1.37-3.4a.55.55,0,0,0,.56-.48c1-5.9,6.92-9.54,17.28-10.57h0a.28.28,0,0,0,.18,0l5.92-3h.07c6.68-5.65,9-12.14,8-22.39v-.11l-2.09-7-15.13-30.64h0a62.36,62.36,0,0,1-6.2-36.13l1.8-1.83c5.4-3.33,8.11-7.61,9-14.32v-.11a.21.21,0,0,0,0-.11l-1-4a.48.48,0,0,0-.14-.2.13.13,0,0,0-.09-.12c-3.8-2.81-5.76-7.63-5.82-14.32l1-4Zm-375.88-61.45-1.09-11.87c-1.17-5.64-.72-9.31,1.36-11.2,1.87-1.66,4.87-1.81,9.16-.42h0l10.74-5,24,4.78.13.06,6,2.92h0a.55.55,0,0,1,.16.18,1.74,1.74,0,0,1,.11.18h0c1,7.9.17,13.08-3,17.32h0l-4.81,4.89-.91,3.76c0,6.09-3,11.25-9,15.33h0l-3.94,3a.63.63,0,0,1-.37.12h-4a.63.63,0,0,1-.3-.07c-4.92-2.91-8.93-4.87-12.83-6.78-8.59-.76-12.39-6.43-11.41-17.2Zm.08-12,1.07,11.89-1.07-11.91h0ZM2493.12,2814a.56.56,0,0,0-.62-.5h-.05l-7.92,1.08a.62.62,0,0,0-.34.15l-5.86,6c-6.18,3.61-10.73,7.94-13.1,12.4l-1.86-13.87a.26.26,0,0,0-.07-.19l-1-2a.62.62,0,0,0-.45-.32l-13.85-1.89h-.16a.55.55,0,0,0-.25.1h0l-4.81,4.89-3.8,1a.71.71,0,0,0-.34.25l-1.7,2.6a2.56,2.56,0,0,0-2.44-.24c-1.27.69-1.87,2.69-1.85,6v3.92l-1.89,23.81h0c0,3.4-1.43,5.36-5.58,7.47,0,0,0,0-.07.08s-.07,0-.09,0l-1,1a.51.51,0,0,0-.17.34l-.94,8.94v.14c1.06,7,5.1,10.55,12,10.49a21.53,21.53,0,0,0,2.54-.18h.07l50.56-5.36a.62.62,0,0,0,.36-.18l2.94-3h0c6-7.32,11.57-12.34,16.56-14.88h0l3.91-3c3.79-1.58,7.68-5.57,5.12-15.42,0-2.33-3.25-5.46-8.35-6.44-4.84-1.9-5.62-3.65-5.66-8.34a.56.56,0,0,0-.54-.58h-2.93c-3.53-.86-5.51-3.46-5.54-7.3v-.09Zm-86.46,95.53a.3.3,0,0,0,.08.07l2.87.94,1.9,1.87a.58.58,0,0,0,.41.17.6.6,0,0,0,.42-.18l4-4.1,2-3v-.08s.06-.06.07-.11c1.67-7.77.58-14.23-3.18-19.22h0a.08.08,0,0,0-.05-.07l-.17-.1c-.06,0-.06-.09-.11-.11l-3.12-1-10.93-.9a.2.2,0,0,0-.15,0l-5.62,1-13.75-16.41-1-1.91-1-4.87a.11.11,0,0,0-.07-.1.48.48,0,0,0-.58-.36h0c-8.11,1.08-10.26,5.14-12.25,14.47-1,7,3.08,12.22,11,14.32v1.45l-4.79,11.7-1.89,2a.64.64,0,0,0,0,.84c5.65,5.55,13.7,7.2,19.33,7.93,1.16,0,2.61-.14,3.36-1.13s.73-2.28.16-4.48l0-4.27c5.17.08,9,1.7,13,5.63h.11Zm671.83-249.06a.52.52,0,0,0-.07-.27.84.84,0,0,0-.29-.13.32.32,0,0,0-.11-.06h0l-23.84-1.8a.49.49,0,0,0-.29.06l-34.6,16.14a8.6,8.6,0,0,0-6.14,4.19h0l-2.93,4-16.52,21.74h-3.51l-13.81-9.72c-7.66-6.57-16.38-9-28.23-7.8h0l-24.83,1.18a.54.54,0,0,0-.18,0l-33.65,12.19h0c-6.18,2.11-9.28,7.32-9.2,15.56,1,8.61-.84,14.43-5.48,17.3l-3.87,1v0c0,.05-.07,0-.09,0-9.06,4.64-14.31,10-17,17.31h0l-4.81,20-1.84,16.78a3.66,3.66,0,0,0-.18,3.81,6.4,6.4,0,0,0,5.76,2.85h2l25.79-1.2h0a.5.5,0,0,0,.26-.08c23.22-16,50-27.59,81.93-35.31l10.8-2,25.84-2.2,18.84-3.13a.54.54,0,0,0,.21-.08l24.72-16.08,3-2v-.06h.07c19.33-21.72,29.6-44.62,32.33-72h0a.44.44,0,0,0-.08-.25Zm123.23,75.13a.55.55,0,0,0,.25-.07l4.92-3a.61.61,0,0,0,.28-.57l-3.17-27.87-1-4a.66.66,0,0,0-.17-.29l-24-20.65a.29.29,0,0,0-.13,0,.52.52,0,0,0-.21-.07h-.36c-5.39,3.28-7.06,11.74-4.08,20.44,1,7.91-1.05,10.73-4.61,14.39l-6.87,4v.05h0c-4.9,4-7.14,12.72-6,23.33,0,6.19,1.69,10.68,5.14,14.13l6.07,16.73a.56.56,0,0,0,.49.39h.06a.58.58,0,0,0,.49-.27l10.83-17.06,1.94-5c3.35-6.82,8.36-11.91,13.38-13.65Zm41.73,187.58c1,3.83.59,6.79-1.15,8.81-2,2.4-5.83,3.37-11.33,2.84-7.69-1-12.86.53-16.28,4.84l-1.9,3.83-6.58,43.63h0a.29.29,0,0,1-.07.16.58.58,0,0,1-.18.2h-.06a.81.81,0,0,1-.22,0,.21.21,0,0,1-.11,0,.57.57,0,0,1-.39-.32h0c-4.57-10.71-6.37-25.47-5.37-43.88v-3.81c-4.17-8.23-5.07-15.5-5.13-23.89-.11-12.59,5.39-18.5,17.29-18.6l19.85-.15a.54.54,0,0,1,.42.16l9,8.87a.59.59,0,0,1,.17.27l1,4v.07h0Zm-2.28-12.74,1.1,12.87h0Zm-40.26,33v0Zm156,45.83h.1l3.93-5a.51.51,0,0,0,.14-.26l1-5v-.18c-1.22-9.07-4.88-14.5-12.26-18.15l-2-2.94a28.94,28.94,0,0,0-26.35-7.89c-4.42.53-7.18,1.77-8.7,3.92s-1.81,5.6-.63,10.73h0c0,.07.08.11.12.17s0,.12.1.16h0l4,2.92h0c8,4.86,14.79,7.12,21.71,7.06a31.42,31.42,0,0,0,3.15-.21l.83,1.62,4,8.89h0c.83,3,3.37,4.64,7.21,4.61a16,16,0,0,0,3.38-.39.46.46,0,0,0,.25-.1ZM3428,3114.85l-32.77-1.73-4.07-1a.53.53,0,0,1-.38-.33h0l-.44-1c-1.91-4.6-3.56-8.55-1.72-15.21,1.82-15.52-4.07-24.08-18.56-26.9l-5.9.05H3364l-3-1h-.15c-3.83-2.52-4.32-11.58-4.34-15.38v-.15l1-3a.63.63,0,0,1,.48-.4l14.69-2.07,4.76-4.86a.64.64,0,0,1,.19-.13l6.93-3h.22l21.83-.18h.13c2.63.51,4.3,1.56,4.9,3.14s.11,3.44-1.4,5.55l-.92,8.82,1.1,14.44,1.67.82a.34.34,0,0,1,.16.1l6.94,6.8c6.83,2,10.21,6.95,10.29,15.25l2.09,13.85a.42.42,0,0,1-.05.29l-2.89,7a.61.61,0,0,1-.55.35Zm-5.11-33.8c3.6,2.41,5.33,6.45,5.37,12.4h0c-.06-6-1.79-10-5.39-12.4Zm-240.19,442v2a.58.58,0,0,1-.56.6h0c-23.66.19-45.62,3.35-65.25,9.44-7.09,1-9.75,6.45-11.43,11.59l-.94,4.91,1.35,43.52a.6.6,0,0,1-.52.6l-22.79,3.17h-.21l-13.91-2.88c-.08,0-.11-.08-.17-.11s-.11,0-.14-.07c-9.38-10.24-15.3-20.35-19.25-32.81h0l-4.15-22.8h0v-.05c-.08-9.4,2.09-15.37,7-19.38h.07v-.06l2-1,.17,0,20.82-3.16h.05c6.07,0,10.18,4.85,11.45,13.41l2.06-1.4c.76-2.78,2.43-4.17,4.36-5.75a28,28,0,0,0,2.6-2.27.5.5,0,0,1,.28-.12h.13l6.94-.05c4.32,0,6.89-.78,8.1-2.35s1.21-3.94.18-7.9l-2-5.92h0l-.05,0c-1.39-9.24-.41-14.77,3.05-17.42h0l4.93-4a.55.55,0,0,1,.24-.12l17.84-4.11a.61.61,0,0,1,.27,0l4,1a.72.72,0,0,1,.2.09l23.85,16.6,4.87.93h.05c10.41,3.82,15.41,12.92,14.51,26ZM2792.83,3371h.09l4-1h.06c10.14-3.76,15.87-10.25,18-20.33l1-1.91a51.33,51.33,0,0,1,19.47-18.78.08.08,0,0,1,.06-.07c.06,0,0,0,.08,0l2.95-3a.76.76,0,0,0,.11-.14l10.63-22.69,2.84-1,24.57-14,32.61-1.23a.61.61,0,0,0,.51-.33.57.57,0,0,0-.08-.61l-9.07-11.9-2-2-12-9.79-2-2a.52.52,0,0,0-.49-.14l-32.73,4.23a.62.62,0,0,0-.39.22l-2.93,4-3.94,5h0a35,35,0,0,0-4.87,17.87l-5.57,3.78-14.77,3.08s-.07,0-.11.06-.07,0-.11,0l-15.77,11c-1.12.24-1.23,1.42-1.23,2.31l-5.64,8.58h-3.64c-10.46.09-17.57,1.52-21.17,4.27a.13.13,0,0,1-.06.11.19.19,0,0,0-.1.1l-2,4a.48.48,0,0,0-.07.26l.08,8.93a.35.35,0,0,0,.07.26l.82,1.65c-3.56,4.46-6.42,6.48-13.13,6.53l-5,0c-9.26.08-17.25,3.28-23.17,9.28h0l-19.7,19-1.91,1.93h-.07a.27.27,0,0,1-.06.17.28.28,0,0,0-.09.18.09.09,0,0,1,0,.07h0c-.43,3.41,0,6,1.41,7.53a6.53,6.53,0,0,0,5.21,1.92h2l23,.8,13.87-2.09h.22c13.76-8.6,26.57-13.11,40.33-14.13Zm-185.38-217.15c-1.71,7-3.31,13.51-3.24,21.55,2,19.36-2.8,35.73-15.58,53l-2.92,5h0c-4.2,6.41-9.25,10.18-15,11.25l-4.9,3h-.07c-7.61,2.92-8.48,9.55-7.42,19.3v4.06a.58.58,0,0,1-.39.55l-5.92,2h-.07a56.84,56.84,0,0,1-10.33,1.07,44,44,0,0,1-30-10.82c-5.9-5.81-9.2-14.34-9.3-24l-15.14-36.5-3.1-11-1.06-8c-2-7.76-5-13.65-8.91-17.5l-2-2-12.86-7.75h0c-3.47-.93-5.27-4.07-5.31-9.38v-.14l1-4s0-.05.08-.1,0-.08,0-.11a22.27,22.27,0,0,1,13-9.19l1.81-1.83,6.79-13.88,3.94-7h0c3-5.06,9.5-6.21,19.08-7.36l4.8-3.9,2-1,2.7-2.76v-3.73a.67.67,0,0,1,.07-.31l5.87-10a.1.1,0,0,0,.09-.07c0-.07,0,0,0-.07,18.14-15.36,37.31-24.32,58.64-27.39h.21l13.93,2.87h.19c5.78,3.8,10.93,12.2,15.32,25l7.07,16.81h0c3.27,11.62,6.16,24.13,5.29,36.87,0,0,0,.07-.07.11v.13l-7.74,15.09Zm-5.11-70.5h0l7.06,16.78Zm-117.13,108.79-1.05-7.94h0Zm27.19,70.91c-5.7-5.61-8.87-13.89-9-23.37v0c.13,9.45,3.3,17.73,9,23.34Zm-157.63-30.52c-3.93-1-7-1.88-13.15-5.92-.06-.05-.06-.12-.11-.18s-.05,0-.08-.06l-1.95-3.83L2320.76,3208H2317c-4.82,0-8.19-1.07-10.26-3.36s-2.78-5.51-2.34-10l-1.21-26.78h0c-.09-9.09,3-15.24,7.86-22.23a1,1,0,0,0,.14-.09.8.8,0,0,1,.13-.13l4.89-2c5-3.39,10.47-7.54,13.57-12.8l1.93-3.93,7.83-15a.45.45,0,0,1,.16-.2l6.91-5,21.75-14.08a.61.61,0,0,1,.91.51v5l2.17,19.78v2.84c1.67,3.16,4.87,3.68,10,1.58l7.78-6.93,13.93-8.13a.68.68,0,0,1,.28-.07h2.07a.5.5,0,0,1,.2.08.59.59,0,0,1,.18.13l.06.06a42.81,42.81,0,0,1,6.22,22.06v.13l-3.81,19.88h0c-3.74,12.46-3.81,23.19-2.64,37.52l-.07.12s0,.1,0,.16l-4.88,10.94a.86.86,0,0,1-.13.2l-27.61,25-12.91,8.09a.46.46,0,0,1-.19.08l-5,1a.24.24,0,0,1-.12,0,.39.39,0,0,1-.08.1Zm-50.4-64.67,1.2,26.76Zm93.24,256.43c0-.06-.07-.09-.07-.15-.06-7-.1-13.06,2.92-18.19h0l3.94-5,11.76-18.95,3-3.11a.54.54,0,0,1,.51-.17l27.82,4.75s.09,0,.12.06.1,0,.14,0l4,2.94,12,10.88h0c.06.05.06.12.11.2s.09.12.09.2h0c0,6.75,2.25,12.58,6.89,18.33l3.71,1.81c8.88-2,15.23,2,19.39,12.14l4,7.87v.06l0,.06c1,4-1.77,9.18-5,12.49h-.06v.06l-2.78,1.87-5.74,20.71c-1.64,6.77-4.36,14-12.09,16.32l-2,1a.55.55,0,0,1-.28.07.89.89,0,0,1-.23,0l-19.81-8.72-2-1-.08-.11s-.09,0-.11-.05c-3.92-4.61-9.12-11.93-9.24-22l-.93-2.72-35.79-25.41a.27.27,0,0,1-.13-.15l-4-5.92c-.11-.05-.09-.12-.11-.17Zm51,55.54c-6-7.13-8.84-13.89-8.9-21.32l-.05-.06.05.09c0,7.4,2.86,14.16,8.88,21.29ZM2485.28,3719l1.92-8.95v-1.86a.55.55,0,0,1,.42-.55l21.26-6c-.17-.91-.35-1.84-.54-2.77-1-5-2.09-10.13-.5-16.69l.86-13.88,5.78-21.82-.94-2.69c-8.52-10.22-19.17-16.36-33.51-19.32a.4.4,0,0,1-.28-.19h-.07c0-.06,0-.14-.06-.22a.14.14,0,0,1,0-.21h0c0-.07.07-.1.11-.16s.05-.14.13-.19l6.91-5a.32.32,0,0,1,.18-.1l4-1h.2l28.8,2.75a.62.62,0,0,1,.27.09l3,2h0a24.82,24.82,0,0,1,11.3,17.17v.06h0l.05,4.77,17.95,24.5a.92.92,0,0,1,.09.23l3.1,13.87h0c1,7.92.12,14-2.85,19.14l-4.86,17.83-9.83,18.06a.57.57,0,0,1-.08.13l-4,4a.53.53,0,0,1-.31.17L2515,3745.3h-.09a.56.56,0,0,1-.56-.38l-4-10.63-22.65-8.66a.64.64,0,0,1-.36-.36l-2-5.94A.54.54,0,0,1,2485.28,3719Zm287.78-26.2a.52.52,0,0,0-.14-.19l-3-3a.37.37,0,0,0-.22-.14l-20.84-6.77L2738,3678l-2.92-2.88a.52.52,0,0,0-.37-.16c-11.33-.85-18,3.46-22.31,14.42h0l-.93,3c-4.13,7.4-3.73,14.42,1.1,19.31.24,2.32,3.56,2.29,5.55,2.28l35.86-.29,9.8-2.07h4c5,0,7.51-4.6,7.43-13.53v-.23ZM4014.7,3513.06l1.82.89c8.83,7.84,18.57,17.78,23.85,32.27h.05a.64.64,0,0,0,.22.27l7,3.93a.8.8,0,0,0,.3.06h.25l8.88-4.05a.68.68,0,0,0,.3-.28l8.79-18.91v-.15l1.88-10.94h0c1-6.15-.07-9.29-4.19-12.37l-16-22.56-1-1.91c-1.52-4.42-1.52-7.58-.06-9.42,1.28-1.58,3.72-2.18,7.36-1.77,3.57,0,3.56-1.66,3.53-5.56v-.07l-1.09-8.93a.38.38,0,0,0,0-.15l-2-4.94-.09-.09a.59.59,0,0,0-.36-.23.21.21,0,0,0-.11-.06h0l-23.83,1.19a.14.14,0,0,0-.11.06.44.44,0,0,0-.22.1.66.66,0,0,0-.12.17.5.5,0,0,0-.09.12c-1,4.26-1.92,9.17-.9,13,0,5.76-2.74,9.36-7.27,9.39a.62.62,0,0,0-.41.18l-1.91,1.93c-7.55,3-13,9.8-13,16.36l-2.88,11.89v.15C4003.32,3509.59,4007.19,3513.06,4014.7,3513.06Zm278.79,139.22h0l-6.69,29.79c-.92,14.44-6,27.25-14.7,37.09l-14.71,21.93h-.06v.06c-.8.83-.8,1.64-.78,3.57h0l-3.64,42.7a.54.54,0,0,1-.05.21l-2,4a.6.6,0,0,1-.09.15l-14.76,16-7,5.1h0c-7,3.58-10.87,7.79-12.49,13.63h0v.1l-3.92,7h0c-7.1,10-9.72,22.7-8.48,41.35l1,4.81a17.09,17.09,0,0,1,.14,19.28l-.94,3.89a.57.57,0,0,1-.5.45l-16.86,2.13h-.06c-3.28,0-7.37-2.15-11.26-5.94l-2.8-.9H4170c-7.59,1-12.46,4.89-13.36,6.73h0a.14.14,0,0,1-.05.11l-3.93,4a11.21,11.21,0,0,0-2.75,7.56h0v.07l-3.82,18.87-2.93,8.07-.09.16-17.69,23-.11.1-29.59,23.07-6.83,6.93h0c-3.82,3.87-7.76,7.88-9.66,12.74a.08.08,0,0,0-.07,0c0,.05,0,.12-.07.16l-15.77,15-9.89,8.06a.53.53,0,0,1-.3.12l-37.69,4.27h-.06a.62.62,0,0,1-.32-.09l-2.92-1.91-22.81-6.74-.24-.14-9-8.86V4020c-2.81-1.82-1.67-10.61-1.24-13.36h0l1-4,5.73-27.81-.06-6.82c-1.69-6.6-.67-13.3.26-19.22.2-1.25.38-2.5.55-3.7a.75.75,0,0,0,.07-.12.38.38,0,0,0,0-.15l5.89-8a.47.47,0,0,1,.14-.14l6.75-4.89L4001,3926l2.6-47.39-1.9-2.79v-.1s-.07-.08-.08-.12c-.92-5.3-5.09-7.42-14.36-7.34h-.05l-10.93-.9-14-2.89-3.07-1,0-.07a.8.8,0,0,1-.19-.13l-.09-.18a.41.41,0,0,1,0-.09c-1.18-7.86-.91-13.43.84-18v-3a49.51,49.51,0,0,1,17.57-28c8.69-6.88,18.23-10.93,30.81-15.22,3.48-.89,4.47-3.23,5.48-8.43-1.07-6.31,0-13.25,2.91-18.17h0l3.87-6.85c0-5.14,3.12-9.24,10-13.25l3.84-3.91a19.23,19.23,0,0,1,12-11.16l13.77-11,11.63-10.82.86-13.65c0-5.87,2.8-12.28,9.17-13.48l8.9-4,32.67-6.24a56.09,56.09,0,0,1,21.75-14l11.78-8,22.62-19,10.83-10,13.9-10.14a.63.63,0,0,1,.32-.1l51.38-1.4,1.78-1.83c5.62-6.81,13-9,21.36-6.28l4,.95c.05,0,.07.07.11.09s.11,0,.14,0l9,7.87a.65.65,0,0,1,.16.21l2,5v.14A108.46,108.46,0,0,1,4293.49,3652.28Zm-90.9,209.82a112.64,112.64,0,0,0,.19,13.12h0a112.64,112.64,0,0,1-.19-13.12Zm-491.93-556-26.51,12-1.87,2.86a.58.58,0,0,1-.28.21l-12.87,5.07-.15.05-35.71,3.25h-1.75l-11.6,15.74-14.81,16-.13.1-4.92,3-.16.06-16.83,5.09a.49.49,0,0,1-.17,0c-1.55,0-2.37.71-2.37,1.4a.56.56,0,0,1-.2.45,29.68,29.68,0,0,1-20,8,38.06,38.06,0,0,1-7.22-.69h0l-23.87-6.74h-3.66L3512,3384h-.09v.06c-7.53,3.85-12.3,9.44-16.55,14.85a55.36,55.36,0,0,0-6.66,21.6v.14l-2,5-9.8,18a.57.57,0,0,1-.43.29h-.08a.52.52,0,0,1-.42-.17l-24-23.63a.49.49,0,0,1-.06-.17.09.09,0,0,1-.08,0c-.11-.33-.26-.7-.38-1.06-1.06-2.85-2.48-6.7-.74-12.12l.92-7.9c-.05-8,2.91-15,9.88-23.22a.14.14,0,0,0,.11,0c0-.05,0-.08.07-.09l7.9-4,24.89-7.18,18.34-9.85v-3.63a5.71,5.71,0,0,1,2.52-4.85c.18-.2.41-.36.55-.53l20.61-26.92,2.94-4c3.25-4.41,6.6-5.09,12.2-2.46,5.9-7.81,13.67-12.78,23.51-17.78l1.9-1.94a.69.69,0,0,1,.13-.11l12.78-7,2.89-2.93.15-.12,2-1,12.77-9a.51.51,0,0,1,.16-.09l22.8-6.14,29.8-5.2,7.87-2.05,14-2.11h.08c8.09-.06,14.14.9,19.29,5.94l15,12.79c5.73,3.76,8.21,7.75,8.24,13.27v.13l-.93,5v.14c-3.46,6.36-8.59,11.14-13.42,12.21ZM3440,3163.28c-12.82-8.4-17.14-17.74-14.39-31.17v-2a.54.54,0,0,1,.2-.43.58.58,0,0,1,.45-.15l33.78,3.71,4,1a.42.42,0,0,1,.28.14l5.8,5.71,7.65-1a.48.48,0,0,1,.5.16.58.58,0,0,1,.16.5l-.94,5.84,1,3.78a29.41,29.41,0,0,0,17.66,16.38h0l29.9,15.64,3,2a.58.58,0,0,1,.24.35l2.07,8.93.18,19.91c1.74,7.7.08,14.21-5,19.36h-.09a.16.16,0,0,1-.06.08l-2,1a.34.34,0,0,1-.19.07l-16.86,2.11h-.13c-10.43-2-18.5,1.66-24.38,5.09h-.06l-4.93,2h-.19l-19.85,1.14h0c-5.24.05-8.53-3.16-8.6-8.4l-2.17-22.81h0c0-7.5,2.13-12.4,4-14.33h0l12.66-13.85.94-3.8c.91-6.82-.12-9.48-4.73-12.2l-19.8-4.79-.06-.05Zm8.55,44.39c.59-4.29,2-7.4,3.41-8.82h0c-1.44,1.42-2.84,4.53-3.43,8.82Zm124.26,35h0l7,1.93a.43.43,0,0,0,.16,0,.61.61,0,0,0,.19,0l10.89-4a.58.58,0,0,0,.23-.18l6.9-8a1,1,0,0,0,.11-.23l1-4.11-.06-6a.58.58,0,0,0-.59-.59h0l-7.87.08c-8.34-.87-15.07-1.11-19.36,4.33a.14.14,0,0,1,0,.09l-.05.06-1.92,5c-1.87,3.16-2.4,5.68-1.63,7.71.61,1.76,2.31,3.1,5,4Zm37,291.43,2,1a.43.43,0,0,0,.16,0h.07a36.67,36.67,0,0,0,4.06.2c7.71-.07,13-2.89,16.23-8.58l2.92-5c3.47-5.27,7.11-13.61,4.88-23.35-1.23-4.72-3.81-6.3-8.62-5.32l-28.73.22h-.18l-3,1a.62.62,0,0,0-.25.17l-13.77,16a.7.7,0,0,0-.15.39v3a.53.53,0,0,0,.22.43ZM3793,3640.9a.56.56,0,0,1,.13.45l-.93,7-5.84,19a.53.53,0,0,1-.49.4l-32.75,3.25h-.06a.43.43,0,0,1-.25-.07l-4-2-8.09-5.94a.73.73,0,0,1-.17-.18l-5-8.89h0c-2.73-7.11-3.18-15.34-1.49-24.42l-10.59,9.86a.5.5,0,0,1-.28.14l-14.87,3.1h-.18c-8.76-1-13.49-5.68-14.51-14.28h0l-.08-9.91c-1-6.2,0-11.28,3.06-14.37a.53.53,0,0,1,.41-.16c2.94,0,5.28,0,6.45,3.17l.74.72,8.37-1,2.75-3.72c2-9.68,10.7-14.3,25.28-13.4,3.18,0,9.84,7.39,10.45,10l2.75,1.82,3.87.93a.59.59,0,0,1,.39.3l2,4,3.1,9v.24c-.92,9,.16,15.83,2.1,23.35l1.64.79,25.68.79A.58.58,0,0,1,3793,3640.9Zm110.3,132.16-3-4.93a.52.52,0,0,0-.37-.27L3883,3764h-.06c-8.14-.93-14.22,2.14-20.12,5.16h-.16l-4.87,4c-8.89,4.08-15,11.11-16,18.41h0a.54.54,0,0,0,.06.25v.18c0,.05.13.07.19.11s.13.11.19.11h0l32.87,3.78h.14l27.77-4.2a.57.57,0,0,0,.5-.57l-.15-17.86a.48.48,0,0,0-.08-.31Zm-220.61,581.56,1.1,13.87-1,6.1h0c-1,8.37-5.25,14.38-13.07,18.38h0l-24.71,12.1h0c-3.1,1.06-4.71,2-5.55,4.65-2,5.12-3.87,9.88-3.81,17.69v3c0,5.07-1.21,8.84-3.62,10.91a7.74,7.74,0,0,1-5.09,1.81,10.61,10.61,0,0,1-1.69-.14h-.11a.53.53,0,0,1-.37-.25h0l-2-3c-2.5-2.59-1.84-7.45-1.18-10.23l-1-4.68a30.09,30.09,0,0,0-20.45-10.45h0a6.18,6.18,0,0,1-4.87-2c-1.7-1.94-2.27-5.14-1.68-9.56v-.18l3.92-8,4.81-11.81c.91-10-.21-19.76-3.16-27.42v-.12c0-.05-.05-.05-.05-.09v-5h0c1.65-17.09-3-31-15.09-45.06l-5.94-4.88-1.89-.89a.61.61,0,0,1-.33-.46l-2.11-15.87a.49.49,0,0,1,0-.24l1-3h0c3-6,8-9.2,15.07-12.32h0l2.59-.87c0-11.3,3.52-20.41,10.81-27.82l3.85-4.89.94-3.86a.46.46,0,0,1,.15-.26l3.94-4,6.79-5.92,10.63-32.69,2.68-34.59c-.08-8.62,1.07-14.33,3.85-19.08l1.89-7.85c.05-3.32,3.21-6.38,6.29-7.43h.14l21.83-2.16a.56.56,0,0,1,.41.14.53.53,0,0,1,.22.4l1.08,11.89v4h0c0,.09-.05.14-.08.22a1,1,0,0,1-.1.17h0a11.68,11.68,0,0,0-4.62,9.47h0l-1.57,51.62h0c-1.82,20.78-12.47,36-31.64,45.32l-.78.81-1.85,14.68c-.86,13.77,3.25,26.54,11,34.17l.85.83a13.16,13.16,0,0,1,10,3.95l14.83,4.8a.54.54,0,0,1,.28.19l3,4a.58.58,0,0,1,.12.38l-.8,23.81s0,0,0,.07v.09c-2.14,6.6-1.39,13,2,17.25l13.86,9.76a.6.6,0,0,1,.37.54Zm-56.56-99.78c-.68,10.58,1.55,20.59,6.08,28.26-4.55-7.66-6.78-17.68-6.1-28.26ZM2058,287.32s.06-.06.06-.1l2.86-14.89,1.93-8a1,1,0,0,0,0-.25l-2.08-9.93-1-3.9c-.08-9.93-2.57-16.4-7.38-19.22l-3.07-2-5-1.94h-.23c-4.68,0-7.5-.83-8.41-2.57l-1-4-7.06-13.84a.65.65,0,0,0-.26-.26l-1.92-1c-4-4.63-9.79-7-17.27-6.91H2008l-17.82,4.11s0,0-.08.06h-.1c-5,3-6.6,2.74-9.2.17a.64.64,0,0,0-.34-.14h-5.08c-5.31,0-10.31,4.25-13.25,8.21l-3.9,3L1944.41,225l-.85.86c-9.26,1.18-16.13,6.5-20.93,16.28l-2,3c0,.06-.05.12-.08.19l-.94,3.9-8.76,14.86a.51.51,0,0,0-.07.17l-.94,3.89L1891.34,300a20.89,20.89,0,0,0-1.87,20.42h.06c.06,0,0,.1,0,.13l8,7.89a.5.5,0,0,0,.22.13l6.12,2,24.84,1.8h0c4.38,0,9.38.6,13.48,5.62h0v.07l4.89,3.85,2,3.92,24.09,32.55h0v.05a10.42,10.42,0,0,0,7.29,2.93,11.75,11.75,0,0,0,4.22-.88h0l9.89-3.06a.79.79,0,0,0,.31-.23l5.89-9c1.89-2.89,3.78-3.73,8.41-3.78l23.82.8h0c5.83,0,9.63-2.92,12.34-9.29l3.88-4.95a.94.94,0,0,0,.12-.22l.93-3.85,3.92-5,1.84-3.74,3.7-1a.57.57,0,0,0,.27-.16l1-1a.56.56,0,0,0,.16-.29l2.9-13.05v-3a.54.54,0,0,0-.06-.25l-8-15.74c-1.22-7-.64-12.26,1.79-16.4A.22.22,0,0,0,2058,287.32ZM1724.74,2328l.88-13.9v-2.93l2.85-16v-3.71c-2.67-6.06-7.15-11.09-13.69-15.38a3.51,3.51,0,0,1-2.49-2.46c-.39-1.54.39-3.42,2.1-5.23l-.09-11.69c0-4.22-.75-6.7-2.27-8.06s-4.3-1.74-9-1.2l-2.89,1h-.24l-12.91-.89a.59.59,0,0,1-.53-.45.57.57,0,0,1,.27-.64l4.76-2.9,4.77-13.68c.49-2.61.38-4.18-.34-4.88s-2-.74-4-.33h0l-8.93,1.07h-.07c-5.44,0-10.44-.7-10.54-6.38h0l-1-7.42c-4.22,0-7-.86-7.06-4.51l-.19-24.77c0-3.78-.85-4.38-3.42-4.37l-22.82.19h-.21l-8-2.93h-.09c-3.24-2.13-3.27-5.34-3.3-9.41h0l3.78-24.83h0c1.89-8.86-.22-14.46-6.81-18.17l-.06-.06c-.06-.06-.06,0-.07,0l-1.84-1.81-27.57-.76-4.83,1-55.64,3.43h0a.46.46,0,0,1-.23-.05l-11-4.87s-.07-.08-.1-.11-.1,0-.14-.07c-9.79-12.54-21.63-16.39-35.15-11.43-6.23,2.73-10.4,7.28-11.43,12.51v2.91a.57.57,0,0,1-.51.57l-15.86,2.12h-.08a.61.61,0,0,1-.19,0l-3-1-38.89-16.58a.45.45,0,0,1-.19-.11l-1-1a.35.35,0,0,1-.11-.13l-6-10.86-8.1-21.72-3.91-3.84a.17.17,0,0,0-.06-.13c-.06,0,0,0-.06,0-3.86-8.51-9.68-15.43-18.87-22.45a20.91,20.91,0,0,1-6.37-15.6c1-15.34-1.8-28.56-8.19-39.33v-.15c0-.06-.06-.08-.06-.14v-1.85a26.62,26.62,0,0,0-8.8-11.5c-4.67-2.75-11.46-4.73-19.6-5.68h-4.91l-30.87-3.74h-.08c-3.21-1-5.5-2.6-6.8-4.65a9.23,9.23,0,0,1-.65-7.82v-3.77l-9-17.66a.48.48,0,0,1-.07-.26v-4.82l-3.89-7.63-26.76-14.57h0a110.34,110.34,0,0,1-27.07-25.64l-3.93-2.91-33-28.49c-5.14-2-7.26-6.2-6.32-12.34l-1-8.86v-3.74l-3.63-2.69-6.81-.92a.57.57,0,0,1-.38-.22l-3-3.91c-1.92-1.88-2.81-2.75-4.55-2.74h-.14l-16.89-3.84h-.2c-5.56-3.65-10.9-7.61-15.13-15.84l-2.87-1.87-13-11.81-9.9-4.85-7.06-5-22-23.6-2.74-.89h-4.77l-18.7,7.07H1049l-28.78.24h-.06c-8.85-.83-14.69-4-18.4-10.06v-.16l-1-3.78L989.94,1734l-2.94-2-4.83-2.83-8.77.07-13.75,3.07h0c-3.91.53-6.47,1.75-7.81,3.75s-1.49,4.68-.56,8.35l1.84,1.83c4.12,3,5.18,5.2,7.23,12.13v.17c0,.08,0,.08-.06.14a.34.34,0,0,1-.09.19.4.4,0,0,1-.16.13s-.06.08-.11.09h-.16l-72.47-1.41h-.17l-2.93-1c-4.89-.94-7.26-1.92-8.42-5.28v-4.18a.23.23,0,0,1,.06-.19,1.18,1.18,0,0,1,.07-.2l16.72-19s.08,0,.1-.06,0-.06.08-.08c14.2-7.22,26.85-11.45,39.78-13.27h3.78c5.87-4.9,13.47-7,22.76-9.09l48.37-20.18,22.62-18,3.77-3.84c2.65-9.18,1.14-15-4.91-19v-.06c-.07,0-.09-.11-.13-.18a.64.64,0,0,1-.08-.19v-.95l-1-2.88a.51.51,0,0,1,0-.45l1-2h0v-.06c2.63-3.56,5.84-7.25,10.34-6.27l26.8-.21,17.93,3.82,17.56-2.1,18.59-16.88,6.87-7a.29.29,0,0,1,.12-.1l6.93-4,7.06-2.1h0c9.64-1.28,18.1,3.13,22.28,5.87h0l20,16.7,3,3,2.91,1.89h0c5,3,9.1,7,11.17,11h0l23.14,39.51,15,17.66a.54.54,0,0,1,.13.37v3l4.32,43.56.92,3.57,10.67,3.78c9.09,3,16.12,6,23,11.79l35.89,21.53,51,47.24,1.67.82,8.57-3.89,5.82-4.93c6.44-6.54,14.76-8,23.46-4.27h.07l4,3a.46.46,0,0,1,.15.16l11.07,17.77,18.92,18.59,16.87,11.82,17.78,8.7,86.38,13.18,9.9,3.87,7.54-2,2.82-3.81a.56.56,0,0,1,.47-.25l16.87-.13c2.94,0,5.71,0,8.5-2.88,4.07-5.18,9.28-7.16,16.29-6.26h3.93a.46.46,0,0,1,.2,0l29.87,10.67h0a92.75,92.75,0,0,1,19,12.75h0l.07.07a.16.16,0,0,0,.08.13c.08,0,.08.1.11.17l1,4c3.28,6.54.73,13.66-2.81,18.25l-.91,9.76v3.82l4,10.69,23.86,27.39,22.75,7.7a.64.64,0,0,1,.27.19l14,16.76,3.07,5v.22c1.1,7.29-2.14,12.46-9.11,14.57l-2.82,1.9-3.83,6.86h0c-5.78,9.41-8.83,18.18-9.61,27.59h0l-1,5-3.83,15.83,3.2,27.66,1,3.77,14,18.64h0c5.48,8.6,8.16,16.47,8.23,24.06,0,.06,0,.09-.06.13s0,.09,0,.14l-2.89,5.89c-1,6.11-.77,10.76,3,16.34v.06h0l11.12,25.72,9.21,35.57,2.87,2.85,11,12.77,30.8,20.5,2.89,1c6.08,1.67,12.62,5.64,21.17,12.85,6.45,6.34,18,9.66,29.41,8.56,14.16-3.16,25.34,0,31.38,8.92v.05h0l1,2a.09.09,0,0,0,0,.07v.06c1,4.45,2.72,7.19,5.18,8.43s5.7.86,9.76-.95l1.84-3.78,5.77-19.8a.61.61,0,0,1,.66-.42l6,1,.17,0,2,1a.12.12,0,0,0,.08.11c.08,0,.09,0,.11.07,6.33,8.3,14.4,12.57,25.35,13.43l1.59-.8a8.47,8.47,0,0,1,3.66-5.6c2.25-1.39,5.31-1.6,8.85-.62h.12l2,1a.55.55,0,0,1,.28.3l5,12.76,1.92,1.86a.73.73,0,0,1,.19.44c0,6.26-2.15,10.42-7.13,13.45h0l-1.77.91-1.82,4.63,3.15,25.57c5.24,14.33,5,26.39-.72,39.07h0v.09l-10.74,13.88c-1.89,4.87-1.85,11.84-1.78,18.6v3a.6.6,0,0,1-.37.56l-26.7,10.12c-3.73,2.79-9.38,5-16,6.11a.14.14,0,0,1-.09,0,.38.38,0,0,1-.15,0l-4-1a.57.57,0,0,1-.34-.22l-10-12.81-3-4.88-2.89-1.89a.55.55,0,0,1-.18-.19l-3-4.93-6.91-9.72-3.7-1.81-23.65,2.15a.59.59,0,0,1-.57-.32l-.26-.48-5.4,26.2a1.59,1.59,0,0,1-.07.2l-2,3a.6.6,0,0,1-.64.25l-10.8-2.85a17.26,17.26,0,0,1-5.42,1,9.54,9.54,0,0,1-5.21-1.35c-2.66-1.65-4.35-4.75-4.91-9v-2.08l-3.12-20.75-.94-2.69-3.82-2.79c-5.06-2-7.26-6-7.32-13.36v-.1h0l2.86-10.86c-.06-7.61-1-12.46-5.83-16.27L1739,2338.32a.55.55,0,0,1-.2-.17l-1.9-2.82-7.8-2.84a.48.48,0,0,1-.2-.14l-4-3.94A.62.62,0,0,1,1724.74,2328Zm-28.07-103.83a3.58,3.58,0,0,1,.93,2.21,3.61,3.61,0,0,0-.93-2.25Zm-403.53-265.85v0ZM1474,2123.06m199.48,96.12-1.06-7.94ZM1212,1507.37h0v-.06l1-3s0,0,.06-.07v-.08c4.12-6.28,9.22-10.24,17-13.26h0l4.85-1,32.47-23h.13s.08-.06.13-.07c7-1,10.31-.06,13.48,4.09v.06h0l1,1.83c7.86,4.44,12.22,9.69,14.13,17h0l1,3h0c3.1,8.06.27,16.34-7,20.59a.53.53,0,0,1-.3.09.64.64,0,0,1-.41-.18l-3.93-3.87-3.79-1.84H1275a.17.17,0,0,1-.16-.07h-.17c-1.94-1.26-2.75-.69-4,.2a11.41,11.41,0,0,1-1.19.76l-5.81,10.83-4.93,7a.56.56,0,0,1-.29.21l-5.94,2h-.18l-25.82-.79a.55.55,0,0,1-.28-.07l-10-5.88h0C1212.34,1519.83,1210.91,1515.11,1212,1507.37Zm84.3-14.28h0a17.32,17.32,0,0,1,1.15,5.5,17,17,0,0,0-1.2-5.5Zm393.14-186.5h0a.46.46,0,0,0-.19.08.37.37,0,0,0-.2.12h0l-13.76,17a.51.51,0,0,0-.09.16l-1.93,5c-1.27,1.94-1.67,3.42-1.26,4.59a3.59,3.59,0,0,0,2.35,2l1,2.83,1,2h0c3.19,5.21,5.44,5.2,11.47,5.15a.57.57,0,0,0,.31-.1l7.9-5a.5.5,0,0,0,.24-.34l3.87-13.91a.54.54,0,0,0,0-.43l-1-2a.11.11,0,0,1-.1-.1c0-.1,0-.1-.09-.13-2.64-1.72-3.74-3.4-2.78-8.41-.18-5.16-1.36-8.56-6.79-8.51Zm-69.59,59.77a.42.42,0,0,1,.07.11.4.4,0,0,1,0,.11l3.1,5.05,1.89,1.85,1,3.75c0,4.79,1.25,8.19,3.65,10.38s5.8,3.09,10.62,3.05c1,0,2.16-.07,3.32-.17.06,0,.09,0,.15-.08a.66.66,0,0,0,.2-.06l7.89-7a.53.53,0,0,0,.17-.25l2-6,3.83-17.89a.41.41,0,0,0,0-.22l-1-6a.52.52,0,0,0-.24-.38l-7-4.91a.6.6,0,0,0-.22-.09l-15-2.87-8.92.07h-.06a.5.5,0,0,0-.2.08.46.46,0,0,0-.18.13h0l-2,3a.53.53,0,0,0-.12.32V1352c-4.3,2.54-3.83,8.46-3,14.36Zm-99.44,102.91c-1.14-8.49.11-13.25,4-15.35l2.92-3,.15-.1,1.73-.89,2.81-13.64c.94-8.92,4.8-14.07,13.7-18.19-.42-3.46,0-5.66,1.19-7.08,1.54-1.77,4.21-2.14,8.31-2.17s6.61.91,8,2.87c1.59,2.25,1.47,5.66-.38,10.71l-1.9,9.9-.91,8.89v2.09c-2,7.39-4,12.07-8,14.18h0l-8.76,8.89-.93,2.85-3.78,21.79-1,3.06a.4.4,0,0,1-.1.18l-3.93,5-7.88,9-10.92,9.08h0c-4,3-9.06,5.12-14,7.11a.46.46,0,0,1-.23.06h-2.93a.59.59,0,0,1-.4-.16s0-.09-.07-.14a.33.33,0,0,1-.12-.25h0c-1.23-14.51,1.37-25.64,7.74-33.09l.93-2.9,5-8.1h0a.8.8,0,0,1,.21-.15c.06,0,.11-.09.17-.1h0c5.83-1,9.33-4.86,9.28-10.35Zm41.73,4.64.25,30.76a.58.58,0,0,0,.57.57h0c4.1,0,9.17-.07,12.29-4.23h0l3.94-4a.5.5,0,0,0,.16-.27l1-4,3.76-26.83c.92-5.77-1.67-9.4-7.5-10.51h0l-5-1h-.35a.91.91,0,0,0-.21.18s-.06,0-.08.09l-8.79,18.92a.75.75,0,0,0-.1.32Zm-105.62,57.17a.59.59,0,0,0-.49-.35l-9.91-.91-19.69-2.79-1.8-1.78c-4.22-8.22-9.29-12.88-15.09-13.92l-2.85-4.67a30.51,30.51,0,0,0-17.23-20.94l-5.91-5.82c-4.81-5.67-9.81-8.93-15.41-10-9.36.08-13.42,1.29-14.4,8.49-2.82,11.68.84,23.83,10.32,34.2a.13.13,0,0,1,.1.05s0,.07.08.08l4,2c8.34,5.47,13.48,11.09,17.71,19.33v5.74l-1.84,16.86c-1.07,3.9-.91,6.8.46,8.9s3.63,3.16,7.09,3.62h.14l19.52-4.07,11.78,11.6a.36.36,0,0,0,.23.13l3,1h.18a.59.59,0,0,0,.36-.13l13.76-11c7.76-3,12.85-7,17-13.24,2.85-4.83,3.11-9.86.92-17.34h0Zm535.11,293.2c-2.49,1.26-4.38,2-5.84,2.06a3.11,3.11,0,0,1-1.44-.3c-1.26-.63-2-2.15-2.53-5.08v-.15a.74.74,0,0,1,0-.21.75.75,0,0,1,.15-.16.13.13,0,0,1,.08-.12l2-1h.27c.62,0,1.42-.12,1.68-.59.16-.29.33-1.2-1.22-3.47l-6-8.83-7.79-6.68h-1.55l-5.79,3.92a.5.5,0,0,1-.24.09l-19.83,3.14h-.24c-.06,0-.11-.06-.18-.08-3.55-1.2-6.2-3.33-7.44-6a10.29,10.29,0,0,1,.15-8.35v-2.89a.14.14,0,0,1,0-.09v-.09c1.93-6,5.82-8.39,13.4-8.46h.19c2.41.79,4.22.77,5.37-.08s1.75-2.66,1.75-5.32l-1-4.88-2-10.64-12.72-6.7-.12-.1-3.86-3.79-21.61-.81-13.87.11a31.65,31.65,0,0,1-3.64.26c-3,0-5-.58-6.12-1.88-1.54-1.67-1.8-4.44-.82-8.93,1-7.06-1.33-9.46-5.6-11.15h-3.85c-9.89.07-14.52-3.56-14.58-11.4v-3h0a1.67,1.67,0,0,1,.08-.2.46.46,0,0,1,.13-.18v-.06l13.69-8.94.89-1.8c2-8.17,1.66-12.76-1.06-16.31v-.06h0l-1-2V1683h0c-2-6.9-2.09-11.81-.25-15.89l-1.74-1.69a.64.64,0,0,1-.18-.43v-6a.55.55,0,0,1,.43-.56l11.9-3.08h.07c8.61-1,14.15.67,16.45,5l11,13.8,5.74,4.69,18.65-.14a.62.62,0,0,1,.32.09l3,2a1.07,1.07,0,0,1,.16.14l6,7.88a.85.85,0,0,1,.06.17l5.09,13.85,1,4,3,7.76c4,4,6.08,9,8.07,13.91h0l6.11,18.8h0c.93,3.6,3.66,7.46,7.44,7.43h.05l8.92.92c5.14,0,9.28,3,14.33,8h0l11,15.8a.61.61,0,0,1,.09.18l1,4,2.12,13.93a.81.81,0,0,1,0,.31l-1.89,4.83c.94,3.77.55,7.09-1.11,9.58s-5,4.32-9.22,4.89h0l-5.81,1-9.77,6h0ZM2225,1177.62s0,0-.07-.08a.34.34,0,0,0-.16-.13.54.54,0,0,0-.21-.08h-.09l-25.8,1.2a.57.57,0,0,0-.45.23l-2.94,4h0c-5,8.19-8.89,15.25-8.82,25.18l.39,47.63a.42.42,0,0,0,.07.27l1,2h0a.48.48,0,0,0,.39.28h.09a17.52,17.52,0,0,0,2.8.22c4,0,6.73-1.82,8.6-5.6h0l.94-2.86,16.57-15.85,11.79-6,.15-.12,6.89-7a.59.59,0,0,0,.17-.33l1.88-12.9.94-6a.69.69,0,0,0,0-.35l-3-5.93-.06-.07c-.06-.07,0,0,0-.09-4.23-4.17-7-9.71-9.67-15.07-.59-.88-1-1.73-1.45-2.55Zm-3031.63,108.5c3,6.8,4.19,15.81,3.21,24.1h0l-1,4v.06a2.36,2.36,0,0,1-1.45,2,3.41,3.41,0,0,1-1.26.25,6,6,0,0,1-4-1.89l-29.67-4.69-3.07-1a.6.6,0,0,1-.36-.32l-5-11.76-13.79-13.57-33.51-4.65a25.81,25.81,0,0,1-5.61.64,29.35,29.35,0,0,1-18.64-6.55v-.09c0-.09-.06,0-.07,0l-2-3a.29.29,0,0,1,0-.13.24.24,0,0,1-.07-.13c-1.16-9.73-3.4-13.49-8.57-14.31-10.58-1.83-18.91-10-25.45-25h0l-3.07-10.87-3.22-28.85-7.07-18.66-13-18.63-6.09-12.94-19-29.44-11.78-7.71c-6.67-1-12-5.49-15.3-13.1h0l-2-5-2.09-9c-1.09-4.25-2.09-5.49-4.42-5.46a.49.49,0,0,1-.24,0l-15.94-6.83-4-2a.6.6,0,0,1-.32-.52v-4a1,1,0,0,1,0-.25l3.87-8.87c.85-7.5-1.87-10.3-4.8-13.16-7.21-1.61-12-5.79-16.52-9.83-1.16-1-2.31-2-3.5-3h0a.53.53,0,0,1-.18-.28l-3.09-13.86v-.07h0c0-7.26,1.8-17.39,11-24.38h.11s0-.06.08-.07l6.93-2,49.75-2.41h0c23.94-.19,43.12-7,57-20.14,7.11-7.22,14.37-8.22,23.49-3.25a.12.12,0,0,0,.09.11c.09,0,.07,0,.09.06l5,6.92v.16c0,.06.07.11.07.17,0,5.53,3.8,11.39,9.79,15.31l8,4.89,6,3.93c6.24,3.09,9.27,8.34,8.32,14.42h0l-2.91,9.94-1.92,7h0v.13c-4.1,6.23-8.19,9.22-14.12,10.26l-7.91,3-21.72,10.09a.45.45,0,0,1-.23,0c-4.67,0-7.86,1.16-9.73,3.44-2,2.49-2.53,6.36-1.48,11.83,0,3.85,1.85,6.46,4.44,6.44a13.4,13.4,0,0,1,10.27,10.4v.06h0v4a.62.62,0,0,1-.13.37l-4.92,6a.4.4,0,0,1-.15.14l-6.63,3.85v1.45l17.93,22.52a.56.56,0,0,1,.09.17l1,3,8.22,35.63,5,8.82h0c3,6.93,4.17,15.83,3.22,25.07.08,10.74,1.65,16.88,4.89,19.28h.05l9,8.86h0a.5.5,0,0,1,.08.2.44.44,0,0,1,.07.22h0c-.94,8.07.19,13.8,4,20.45h0l1.88,3.67,28.48,2.72a.49.49,0,0,1,.38.18l8,8.86v.14s.08.09.09.14a6.34,6.34,0,0,0,3.27,4.17c3.22,1.85,7.93,1.92,12.87.23h0l4.95-1,12.77-5h.14c4.38-.66,7.61-.16,9.57,1.52a6.2,6.2,0,0,1,2.06,4.93c-.89,8.6.93,15.44,4.87,18.35v.06c0,.06,0,0,.07,0l10,12.82v.07c0,.07.47.15.49.17ZM-767,1441.3h0l-3.84-.93a18.81,18.81,0,0,1-7.75-12.41v-.09a.9.9,0,0,0-.14-.2l-.15-.11s-.06-.06-.1-.06l-15.88-3.83h0a.71.71,0,0,0-.29,0h-.14a.5.5,0,0,0-.16.22.32.32,0,0,0-.11.12h0c-2.6,9-.68,17.44,5.25,23.31l4.88,5.75.08,8.72v.05c1,10.4,3.9,16,9.31,18.21l2.93,2.89a.52.52,0,0,0,.37.16l15.89.88h0a.55.55,0,0,0,.4-.18h0c5.47-5.56,6.9-12,4.95-22.34-1.38-11.87-9.23-17.51-15.6-20.21Zm227,445.25,3.75-28.83c-1.13-18.15,6.71-32.07,22.69-40.26l2.8-3.78,1.87-12.78c2-18.25,8.34-30.46,18.86-36.31,4.41-3.59,8.44-8.36,13.48-19.68h0l2.93-6a.7.7,0,0,1,.27-.27l7.9-4h.26c5.87,0,12,2.74,17.24,7.86,7.56,1.89,11.27,8.21,11.36,19.29h0l-4.46,58.38,1.87,2.78v.07h0a38,38,0,0,1,3.19,21.13c0,4.14-3.06,9.28-8.05,13.35h-.11l-.07.06-3,1-.65.23c-2.9,1-5.88,2-5.85,5.23-1,7.4.32,8.69,1.73,9.38a29.87,29.87,0,0,1,11.12,7l2,2a.22.22,0,0,0,.06.15.24.24,0,0,1,.1.15c3.06,13.76,1.4,24.92-4.83,32.29a.14.14,0,0,0-.12.07.18.18,0,0,1-.14.11l-3,1-16.76,3.1-2.82,2.86-8.82,10h-.07c-.07,0,0,0-.06.06-8.46,5.37-16.27,9.17-27,10.22h-.05a.57.57,0,0,1-.39-.16.57.57,0,0,1-.19-.42c-.1-11.72-1.63-19.65-5.12-26.51l-4-6.88v-.09s-.06-.07-.06-.11a22.76,22.76,0,0,0-1.19-5.35,11.26,11.26,0,0,0-.66,2.42.11.11,0,0,1,0,.09c-.05,0,0,.09,0,.12l-1.88,2.89a91.52,91.52,0,0,1-6.77,25.85l-1.92,4.88c0,5-1.89,11-5,12.27l-4.77,4.85c-.91,5.24-4.32,8.27-9.41,8.3a.57.57,0,0,1-.5-.27c-5.07-8-6.18-17.78-6.28-30-.09-11.6,2.71-19.91,8.8-26.16l.9-2.8Zm38,46.62c-.68-7.43-2.22-13.18-4.87-18.34h0c2.59,5.17,4.13,10.91,4.81,18.34Zm284.53,81.36-4.89,3a.51.51,0,0,1-.26.09l-22.82,2.17a.54.54,0,0,1-.45-.15.59.59,0,0,1-.19-.43v-.74l-2.83-2.8a.52.52,0,0,1-.12-.17l-5.06-10.87-4-5.83a.72.72,0,0,1-.09-.2l-2.06-8.91a.38.38,0,0,1,0-.21l.93-7,5.8-15.88-6.19-25.6-1.2-23.92-3-9.67-4.93-7.76-5.93-4.85-.11-.12-4-5.93a.46.46,0,0,1-.09-.32v-2.73c-3.89-3.81-5.73-5.56-9.4-5.54a.59.59,0,0,1-.23-.05l-11.95-4.87a.55.55,0,0,1-.3-.28l-.89-1.76-7.76-2.84-8.93-2.9a.3.3,0,0,1-.17-.08l-8-5.89a1.06,1.06,0,0,1-.15-.15l-7-10.86a1.06,1.06,0,0,1-.09-.25l-1-7.93-.09-11c-.08-8.39-1-15.42-5.05-22.47l-7-10.85-8.71-12.37-4.47,2.72-14.76,11a.47.47,0,0,1-.25.11l-26.77,4.18a.55.55,0,0,1-.36,0l-2-1-.2-.17-10-12.82-6-7.91v-.14s0,0-.06,0c-1.84-6.26-3.31-13.68-.14-21.23h0v-.07l5.89-8a.68.68,0,0,1,.21-.17l2-1c9-5.07,12.34-13,9.47-22.22a.14.14,0,0,1,0-.09v-2.87l-3.91-5.77-5-5.88a.56.56,0,0,1-.13-.24l-5.14-21.79-1-4.86-10-15.71h0l-3-4.94a.56.56,0,0,1-.09-.31v-2l1.74-30.82,1-4a33.31,33.31,0,0,0-1.06-14.45l-5.89-5.81-2.08-3.06-9.05-13.82a.76.76,0,0,1-.11-.32v-1.91l-3-10.66-1.89-1.85-4.09-6v-.14h0c-1.71-5.83-6.74-11.81-13.79-16.43h0l-20-13.74a.48.48,0,0,1-.19-.21l-2-4v-.14a32.13,32.13,0,0,0-12.2-18.48l-2.8-.9c-11.49-2.22-18.36-7.92-19.41-16.09l-3-5.89-6-12.76-8.84-8.7c-9.07-3-14.08-8.94-18.15-14.92h0l-12-18.73h0c-4.7-7-5.84-15.32-3.27-24.21-.07-5.88-1.62-10.1-4.88-13.32l-2.85-1.86L-596,1398.4l-20.74,1.17-15.73,4.06-4.11.06a.66.66,0,0,1-.36-.11l-11-7.84-11-12.75-9.7-1.87c-6.13.05-12.92-.58-16.29-7.95l-1.83-.89a.62.62,0,0,1-.34-.53l-.1-12.84c-1-5.48-2.75-9.44-8.7-12.36-5.42-3.19-7.31-7.5-6.39-14.4l.86-15.77-1-2.87c-1.61-4.66-5.06-10.41-12.52-11.41H-715a.6.6,0,0,1-.19-.06l-6-3.91c-9.76-3.21-11.22-10-10.36-19.3v-3c-.07-8.41,2.21-13.6,5.9-19.23h0l.8-.82c-.07-4.72-1.06-8.53-2.95-11.33h0l-3-4.94a.57.57,0,0,1-.07-.34l.86-13.9v-3.76l-8.95-13.68h0c-5.19-10.17-12.14-13.27-23.24-10.43h-4.15a.61.61,0,0,1-.3-.08l-15-8.81a.7.7,0,0,1-.21-.21l-4-6.92v-.08h0c-2.47-7.24-.18-13,7-17.56l16.69-17.94,5.79-4.9,1.78-18.54-1-3.86-7-12.71-2.9-4.75-8.68-3.78h-5l-14-4.85-14-7.87h0c-7.89-5.83-20-9.75-31.64-13.53-7.15-1-12.17-2-16.27-7-1.91-2.81-2.31-6.7-1.21-11.31v-1.94a.54.54,0,0,1,.16-.42c2.94-3,5-5.14,12.18-6.22h6.09a.28.28,0,0,1,.18,0l3,1,33,17.63,19,13.79,4.81,2.83,51.44-.42c9.75-.07,17.17-2.6,23.33-7.94l22.48-34.83,2.87-5.82,1.75-26.68,2.94-9.1.09-.18,14.75-19a.18.18,0,0,1,.1-.11l4-3a.54.54,0,0,1,.35-.11h3a.34.34,0,0,1,.2,0l18.86,6.78a14.68,14.68,0,0,0,15.16-6.78l6.74-18.77c.94-4.81.9-8.68-.06-11.53L-635,901.47a1,1,0,0,1,0-.16l-7.16-25.73c-3.09-9-3.16-18.07-.19-26.17A32.72,32.72,0,0,1-629.65,831h0l7.74-7.86,3.73-26.62v-.06a.09.09,0,0,1,0-.07c4-11.36,11.22-21.58,17.71-30.07h.08s0-.06,0-.07l9.89-7a31.13,31.13,0,0,1,13.07-6.14h.06l9.9-1.08,108.86-3.83c1-2.09,3.31-1.76,5.82-1.41a22.53,22.53,0,0,0,3.48.33c3.72,0,6.89-1.83,10-3.56.77-.43,1.54-.85,2.32-1.26v-2.64l1.78-26.84,9.69-31c3.37-12.71,4.77-21.88,4.7-30.64h0l3.71-33.76.95-6a.49.49,0,0,1,.14-.3l25.58-29,2.81-3.8.79-24.64a.43.43,0,0,1,0-.16l18.43-53.75c3.89-10.94,9.66-20.82,18.7-32l3.9-6a.69.69,0,0,1,.11-.13l5.93-5,5-3.08a.75.75,0,0,1,.29-.09l35.73-1.27h2.8l24.49-18.92,36.43-34,8-5.09h0c7.55-3.43,13.76-9.4,18.45-17.77l3.85-6.86.92-8.82.6-48.58-.1-12.88-1-4.84L-219.41,263l-16-19.62a.64.64,0,0,1-.08-.14l-11.12-26.71-1.1-7.07a177.91,177.91,0,0,1,2.48-64.72c0-.07.06-.09.08-.12s0-.13.07-.17l2-2,6.86-8a.71.71,0,0,1,.5-.21L-191,137.7l21.75-1.17h0c4.14,0,8.61-2.17,14.47-6.93l9.86-8,4-2.08a.55.55,0,0,1,.25-.07l24.81-1.19h0a25.56,25.56,0,0,1,22.31,8.87l5.82,3.82,6.83.92h.14l6.83,2.85,38.45-4.25,9.82-4,22.6-15L21.75,98.35l13.76-10,3-2h.13a.27.27,0,0,1,.11-.08,88.55,88.55,0,0,1,23-.18h.15L71.9,90c13.91,4.17,23.52,10.36,32.15,20.73l8.89,8.74,8.82,2.87,11.77,1.85c11.77-.1,23.51-6.09,33.09-16.86l10.65-27.77h0c3.63-7.4,11.6-10.51,24.33-9.43h0l7,.94,23.62-1.18,5.78-2,31.51-23h0l12.79-8c11.65-9.3,21.58-22.23,31.26-40.71l13.67-28.9,2-3.06,40.5-37.14a.34.34,0,0,1,.16-.1l31.65-14.15a.59.59,0,0,1,.19,0l68.45-5.51L484-94.83l66.51-5.51,48.81,6.58h0c9.2,2.54,16.08,5.75,21.07,9.81l11.92,6.83,26.73,8.68a183.18,183.18,0,0,0,61.27.51l7.8-4,22.66-15H751c.06,0,.1-.07.15-.07,4.5,0,8.18-3.47,13.37-9.81h0l15.75-18a.55.55,0,0,1,.53-.18.59.59,0,0,1,.45.34L790.32-93l3.83,4.73L800-86.35l10.77,3.82,2.65-.91c8.44-7.66,12.49-17.35,11.43-27.3h0l.53-59.54v-5.12c4.08-20.13,10.27-36.93,19.51-52.93h0l3.93-6h0c3-4,5.09-5.23,9.37-5.27h0l48.63.61,10,1.91h3.85l45.73,2.62h.06l10.87,2.87h2.91l95.13,4.21,6.75-4.9,8.9-6,32.62-21.11,5.8-5.91,13.77-13c4.26-6.46,10.54-10.19,17.22-10.25,5.64-1.21,10.7.45,15.32,5l8,5.86,7.11,8v.05h0c3.09,5.09,7,7.46,12.12,7.53l.8-1.63a.41.41,0,0,1,.18-.21l21.68-16c9.63-9.77,19.86-13,32.18-10.29h.07c5.75-.05,10.78,1.83,17,4.88,15.87,9.74,33.46,13.56,52.38,11.42h0l30.76-2.23,5.79-1,1-.61c13.22-7.69,26.88-15.64,39.39-22.5h0l4.94-2a.67.67,0,0,1,.2,0l72.2-2.57.76-.74,5.82-12.87a.69.69,0,0,1,.16-.22l15.79-12,19.87-10.13a.73.73,0,0,1,.29-.07l22.82.81a.67.67,0,0,1,.31.1l5.88,3.84,24.73,3.76,42.27-1.33c5.67-7.77,8.52-15.61,8.46-23.31v-3.25c6.25-13.84,9.89-24.75,12.56-37.68a.12.12,0,0,1,.06-.1c.06,0,0-.08,0-.11l2-3c0-.09.14-.1.2-.14s.08-.09.14-.11c3.84-1,7.78-2,9.63-3.89a.71.71,0,0,1,.3-.18c10.94-2.08,18.08-.22,26.28,6.82l12.81,5.78,6.79.92,22.4-3.1,2.8-6.66.93-1.89v-3.84c0-3.09,2.77-4.54,5.4-4.6l13.81-4.06h.29a28.7,28.7,0,0,1,14.26,8h0l12,13.8,2.91,3.78,12.66,1.85,18.67-.17,15.78-5,1.81-.93,2.87-2.93h0c1.28-2.35,4.58-4.24,9.17-5.2l9.93-2.06h.07c9.71-.07,17.55-3.08,23.31-8.94l12.76-15.94h0c2.19-3.32,4.64-5.08,7.25-5.25s5,1.22,7.49,4.09l14,12.8,2,2,17.15,24.76h0c8.34,16.34,18.89,29.52,29,41.33l22,22.62,4.08,6c0,.06.06.13.09.18l1,3.86,8.9,12.65c2.91,1.88,4.82,2.78,9.54,2.75h0l40.72,3.64a.47.47,0,0,1,.28.09l3,2a.52.52,0,0,1,.19.2l19.13,32.59.67,1.31,43.77-40.5,7-5.06a.49.49,0,0,1,.29-.11l14.89-1.11h.2l33.83,9.65a.61.61,0,0,1,.39.38l1,2.83,15.9,14.67,24.82,17.54,73.56,24.2,15.84,2.84h2.86a.63.63,0,0,1,.5.26l2,2.95a35.71,35.71,0,0,0,18.69,14.52c14,6.32,23.53,15.69,28.33,27.85l3,4.8,5.84,4.8,30.77,11.63h0l2,1,15.73,4.77h3.72l9.69-5.92c11.33-10.73,30-25,54.41-32.24l38.45-26.06a.56.56,0,0,1,.28-.1l54.54-6.39,35.83,4.68,30.53-4.2,21.6-15a.64.64,0,0,1,.33-.1h3l75.58,8.34L2761-242l45.51-7.3,2.87-1h0l34.7-8.22,8.67-3,16.59-21.83,24.51-23.89v-1.66l-9.15-32.51-3-4.87a.6.6,0,0,1,.06-.7l31.4-34.88c.22-1,.49-2,.74-3,1.76-6.93,3.74-14.79,2-22.41v-3c-5-11.61-10.06-23.57-19-32.29v-.07h0l-14.06-19.74h0c-.22-.33-.46-.65-.67-1-1.7-2.39-3.13-4.49-1.65-8l-1.5-.74-16-12.83-7.08-8-10.15-18.88h0c-3.48-6-5.12-13.95-5.22-25h0v-.07l.95-5a.53.53,0,0,1,.17-.31l11.82-11a.94.94,0,0,1,.22-.12l14.83-5.08,4-1,59.15-27.2.92-.92a.47.47,0,0,1,.33-.17l8.93-1.06,23.85-1.19,22,2.81a.7.7,0,0,1,.34.15l4,4a.13.13,0,0,0,.06.1c.06,0,.06,0,.09.08,1.85,4.57,6.38,9.31,13.8,14.52,11.73,8.07,22.68,11.62,35.5,11.52h.17l3,1,22,9.78,10.08,6.92a.2.2,0,0,1,.15.13l5,6.92h0c6.65,10.25,15.4,16.4,27.55,19.36h3.87l9,.92h.07c3,1,4.35,2.12,4.4,6.39l1,3.78,21,26.53,5.08,9a.52.52,0,0,1,.07.21L3155-457l6.16,27.61a181.94,181.94,0,0,1,13.38,57.58l1.07,9.89c1.92,11.82,4.71,22,12.09,33.41.39.89.74,1.72,1.1,2.56,1.9,4.45,4,9.47,4.09,14.58l.18,21.82a.52.52,0,0,1-.07.27l-3.9,8-17.72,24a.66.66,0,0,1-.47.24l-27.79.23a.56.56,0,0,1-.31-.09l-5-2.93c-.07,0-.07-.09-.1-.14s-.07,0-.09,0c-1.56-2.32-3.88-2.85-7.27-1.7l-1.63.85-.9,6.64a.63.63,0,0,1-.31.45l-2,1c-5.6,3.27-13.16,9-17.46,17.72l-1.93,5a.61.61,0,0,1-.15.24l-11.83,10-33.56,27.07a.53.53,0,0,1-.21.11l-27.74,7.17h-.14a.09.09,0,0,0-.07,0l-9.93-.93-4-1-3.54-.68a6.8,6.8,0,0,1,.31,6.19l-8.45,59.6-1.53,55.51-1.95,8.08c-1,4.1-1.86,8.91-.86,13.63v.21l-.94,6v.05h0c-.89,2.75-.95,4.54,1,7.43h0l1,2,3.93,4.82,8.06,12.82,9.92,8.79h0c4.56,3.4,5.23,8.12,5.26,12.3v2l-1,4.12a.44.44,0,0,1-.16.26l-2.93,3-8.77,7.9-.89,3.73,1.16,22.72.07,8a.54.54,0,0,1,0,.18l-2,6a.52.52,0,0,1-.23.31l-13.82,9.06L2979.55,98.6l-4.9,5-9.88,9-.13.09-3.53,1.8c.92,3.46,1.9,6.28,4.67,8.1a.77.77,0,0,0,.1.14s.1.06.12.13v.06a.74.74,0,0,1,0,.21v.22h0a.11.11,0,0,0-.09.06.37.37,0,0,1-.17.16l-5,2-4.76,2.92-16.59,20.8L2929.75,179c-1.07,10.21-5.8,16.39-14,18.35l-9.79,7-4.87,4.93-31.68,21.17a.43.43,0,0,1-.22.09l-16.85,3.1a.17.17,0,0,1-.1,0h-.08l-7-.95a.36.36,0,0,1-.24-.09l-6-3.92a.37.37,0,0,1-.12-.13l-10-12.82-5-5.89a.54.54,0,0,1-.11-.18l-9.13-25.73-5.11-20.78-4.84-8.52H2801l-22.79,1.18h-.06c-17.87-.76-37.41-4.82-59.79-12.45l-8.93-1.91h-.06c-18.74-7.71-37.7-10.54-56.36-8.44h-.07l-50.62.42-8.94.06-83.65-18.2-22.8-2.79-78.78-28.19-9.05-4.92a.4.4,0,0,1-.16-.13l-6-6.84c-5.29-4.16-10.06-6.72-17.55-6.66a23.23,23.23,0,0,0-18.49,3l-3,2a.67.67,0,0,1-.31.1L2305,73.22h-.16l-4-1-.15-.07-5-2.92a26.13,26.13,0,0,1-14.27-15l-7.07-15.82a.65.65,0,0,1,0-.34l3.79-22.85h0a64,64,0,0,0,2.75-27.52l-2-5.86h0a59.57,59.57,0,0,0-14-28.38l-.84-.83-17.65-2.8c-1.93,0-5.49.06-6.34,2.63h0v.09l-7.84,13h0c-3.82,5.81-4.77,11.73-5.68,19.4l20.9,25.43,3,5h0a.61.61,0,0,1,0,.19,1,1,0,0,1,0,.24c0,.06-.09.1-.1.17a.3.3,0,0,1-.13.17h0a34.25,34.25,0,0,1-15.12,3.15h-2.85l-26.51,12-.8.83a49.51,49.51,0,0,1-27.72,32.15l-56.14,50a.42.42,0,0,1-.18.11l-43.53,16.23-5,2-15.72,9h-.11l-8.94,2.05h-.2l-8-.93-11-2.89-11.82.1h-.21l-46.81-17.48a.38.38,0,0,1-.13-.09l-12-8.83-26-21.64L1923.56,85c-19.43-7.8-34.5-10.33-50.32-8.46h-.07l-12.9.1L1835.6,82l-16.7,7-5.82,4-13.81,10h-.06c-3.78,1.92-5.57,5.66-5.53,11.43,0,.06-.07.1-.07.15v.17l-2,3-3.86,8.88a.41.41,0,0,1-.14.2l-6.8,5.93L1776,144.57l-10.66,31.81a.58.58,0,0,1-.14.24l-1,1s-.09,0-.11.06,0,.07-.1.08c-11.65,4.34-20,10.64-26.35,19.81l-1.93,3.94a.39.39,0,0,1-.11.17l-37.44,36a.62.62,0,0,1-.28.14l-5,1.05-62.5,9.43h-4l-29.67,4.2h-.16l-30.8-3.72-8.09-3a.35.35,0,0,1-.14-.06l-28.11-19.62h0l-2.81-2-13.8-8.71H1509a.67.67,0,0,1-.2,0l-13.86-4.83-22.77-1.8-13.6,2.08-3.83,2.91h-.11a91.87,91.87,0,0,0-21.45,13.88l-.93,2.83-3,5.09a.1.1,0,0,0-.09.06.35.35,0,0,1-.15.17l-1.91,1L1409.44,254h0c-6.15,4.46-8.68,11.64-7.53,21.34h0l1.24,30.59,1.88,2.76A83.45,83.45,0,0,0,1442.61,330h.06l2,1h.06l8.86,4.82.13.1,2,2s0,.09.06.12a.72.72,0,0,1,.09.2.74.74,0,0,1,0,.21v.14c-1.79,3.65,1,8.31,4,11.2a.22.22,0,0,0,.07.16.16.16,0,0,1,.08.12L1462,360c1.56,7.57,5.58,17.75,15.77,23.3h0L1507.73,400l4,2,8.94,3.88h0c3.24,2.12,5.25,4.26,5.28,8.38-1,4.16-2,8.32-6.15,10.47h0l-4.92,3-3.09,1.07h-.16L1493,430.1l-11.54,8.81-.91,2.81a1,1,0,0,1-.1.17l-3.81,4.84v3.77l2.11,15.78v.18c-1.73,10.87,2.29,20.68,11.93,29.11l12.91,7.79,3,2,1.93,1,9,5.9.06.06c.06.06,0,0,.06,0,10.41,11.28,22.82,16.95,34.69,21.41,0,0,0,.06.09.08a.16.16,0,0,0,.11,0l1,1,6.83,4.78,10.82,2.86a42,42,0,0,0,15.4-.09l3.68-5.62-.07-8.67-5.06-15.75-3-4.8v-.15a63.38,63.38,0,0,1-2.2-24v-.19l2-4a.55.55,0,0,1,.31-.29l12.88-5.06a.54.54,0,0,1,.6.11l10,8.83,4.08,5,.09.13,8.08,18.79,5.17,21.89,1.9,3.69,2.86,1.87,9.09,8.94h0c3.81,3.73,8.77,7.69,16.61,8.61h.06l10,2.89,4.92,1,38.59-.31h.21l8,2.92a.45.45,0,0,1,.27.2l8,10.84.09.17,3,8.82,17,23.61,35.88,31.37a.4.4,0,0,1,.13.16l7,12.85h0a135.72,135.72,0,0,0,19,27.48l4,3.91c10.93,7.53,17.21,16.62,19.21,27.78l2.89,2.81c2.16,2.15,2.18,4.36,2.22,8.35h0v.05l-.93,7.94c0,8-2.52,13.49-7.2,15.41a.06.06,0,0,0-.06,0h0l-4,1h-.13L1789,739.22a.54.54,0,0,1-.25-.06l-1.86-.91h-3.85c-10.79.08-19.55-4.39-25.38-12.94l-10-12.82-7-7.85-.11-.15-3-6.91-4-7.89a.64.64,0,0,0-.06-.18l-1-7.84-12-24.5-9.82-7.71-2.87-1a.49.49,0,0,1-.2-.11l-28-23.6-10.09-12.86c-5.57-5.48-11.4-7.39-17.31-5.65h-.15l-47.63,1.38h-4a.67.67,0,0,1-.36-.12l-4-2.94v-.06c0-.06,0,0-.07,0a201.59,201.59,0,0,0-47.82-39.2h0l-27.94-17.64-2.74-.88L1485,548.07l-9.69,4.93-4.85,4.94-.21.15-28.7,11.13-14,2.13h-1.08L1405,576.44l-.81.83c-3.6,5.5-4.8,13.81-3.65,25.36l4.06,13.81,3,6.85,7,13.68,4.9,3.86,2.94,2.17a276.92,276.92,0,0,0,23.94,16.42h.05l26,23.63,14.06,15.8,3.83,3.78,12.73,1.85,24.76.79h.2l5,1.94,9.09,5.95,19.82,7.72,3,1a.21.21,0,0,1,.13.07l9,5.88a.32.32,0,0,1,.14.14l9,11.83a.55.55,0,0,1,.12.35v4c1.07,6.19,0,11.28-3,14.35-5.63,3.47-5.36,10.43-4.69,14.34l2.94,5.75,1.77,1.75c4.1.06,5.25,2.25,7.26,6.19v.14a.49.49,0,0,1,0,.24.16.16,0,0,1-.07.16.33.33,0,0,1-.07.16L1585.6,789l-.86,10.46,3.82,4.7c6.29,4.16,11.27,10.36,15.15,18.91h0v.45h0l-1,2-19.67,30-8.74,18.86a.36.36,0,0,1-.11.16l-2,2h0c-6.22,6.35-12.45,9.21-20.17,9.26l-5,0h0c-12.2-.85-21.78-7.88-28.43-20.94v-.12l-3.08-11.88-2.13-18.76-2.78-3.66-14.73-3.79a.61.61,0,0,1-.43-.46l-3-14.57-1.61-.78c-5.34.05-8.45,1.28-9.22,3.62a.55.55,0,0,1-.28.35l-3.91,2h0a10.12,10.12,0,0,1-4.87,1.74,3.88,3.88,0,0,1-1.74-.35c-1.64-.74-2.71-2.6-3.24-5.7l-1-5.81c-4.79-6-7.07-12-7.12-19v-5l-3.07-16.63-25-36.4L1416,700.32a.57.57,0,0,1,0-.26v-2.81l-11-17.64-15-14.61-4.94-3.91-14-12.75-5.78-2.83-24.67.19c-6.93,0-11.92-2.71-17.25-6.9l-29.86-15.63-3.89-1.89L1251,616.65l-31.65,2.23h-3.82c-11.62,7.56-17.42,16.58-18.23,28.38h0v0l-3.84,15.91.32,39.43,1.93,4.7,11.82,9.68c9.75,4.38,17.34,11.52,23.19,21.87h0l8.06,14.82a.48.48,0,0,1,.07.2l1,6.94h0c1.07,10.84,7.21,19.56,17.76,25.21h.08l23,22.64,2.9,1.9,7.06,5.92,3.83,2.83,17.72,1.84a.61.61,0,0,1,.36.15l1,1,14,17.75,3.82,2.82,4.69.89,13.71-5,19.9-4.15a.57.57,0,0,1,.26,0l10.94,2.89h.16l5,3a.45.45,0,0,1,.21.2l14,24.6,8.89,6.79a.68.68,0,0,1,.17.21l.92,1.81c5,2.52,9.92,8,15,16.81l2,1.92a.25.25,0,0,0,.07.17c.07.06.08.07.09.13,1.06,5.12,0,7.45-4.21,9.6a.41.41,0,0,1-.26.07h0l-66.53-1.46-6-1a.48.48,0,0,1-.2-.07l-22.94-13.72-10.12-9.92L1302.3,868l-13.75-4.77-17.79-.84-31.66,2.23h-6l-15.75,3.1h0a7.43,7.43,0,0,1-1.56.22,3.86,3.86,0,0,1-2.43-.76,5,5,0,0,1-1.69-4v-4.76l-5.78-6.63-3.88-1.91a.78.78,0,0,1-.2-.16l-4-4.93-4.08-8v-.16c-2.33-12.25-3.06-23-2.26-32.88,0-4.71-1.58-7.77-4.72-9.32a.1.1,0,0,0-.08-.09c-.08,0-.07,0-.1,0l-7-7.88-6.13-11-1.06-3.07c-2-6-3.11-11.07-2.15-18.11h0l1.88-11.87a430.8,430.8,0,0,0-5.45-63.24l-2-3.87-12-19.71-15.92-16.64-15.82-12.62-11.77-1.87-23.7,1.19a.36.36,0,0,1-.25,0l-9-3.9-10.08-6.92-25.8-11.65a.57.57,0,0,1-.18-.12l-3-2.95-23-27.59L998.29,562l-10.85-2.88-4.93-.93h0a15.8,15.8,0,0,1-10.19-4l-8-5.89-33.84-18.54-.12-.1-3-2.94a133.53,133.53,0,0,1-32.15-34.59V492h0l-4.07-10.89-1-5c-4.53-12.42-6.33-26.82-5.31-42.8v-.22l2-4a.64.64,0,0,1,.21-.25l7.9-5a.56.56,0,0,1,.31-.09l7.94-.07,26.6-5.16a53.08,53.08,0,0,0,21.37-14.81L954,397l-1.08-14.74-4.1-19.59-3.93-4.82-24-26.58-2.81-2.75h-3.73l-23.68,4.14h-.84l-9.62,9.76-6.79,13.85c-3.2,9.83-10.92,18-16.84,23.16a.21.21,0,0,0-.14.05s-.06.07-.11.07l-38.63,9.25-8.68,3-4.8,6.82a.58.58,0,0,1-.48.25h-.18l-2.2-.72v4.15a.56.56,0,0,1-.1.33l-2,3-8.89,11-15.81,13.08C769.33,435,768,439.86,769.89,447v.36l-3.88,10h0v.07c-2.83,4.58-6.47,6.92-10.79,7a18,18,0,0,1-8.82-2.64L737.6,457l-6.35,1-1.82,8.56,0,.07h0c-3.52,7.17,2.21,11.55,4.84,13.1h0l18,14.74h0c5.44,3.57,9.76,9.13,13.2,17a.09.09,0,0,0,0,.07v.05l3.09,15.76,3,4.85v.17c2.08,9,2.18,21.14,2.27,31.86-1.65,6.85-4.36,15.55-10.89,23.3h0l-17.74,17L710,659.36l-.9,1.82a216.74,216.74,0,0,0,.42,50.4c.68,1.94,1.32,4,2,6,2.18,6.89,4.23,13.39,8,19.41v.08l.05,0,12.24,39.61,1.11,12L741,815.3l6.91,9.72,19.91,15.66,24.92,16.65,12,9.86s0,.07.05.09.07,0,.09,0a37.85,37.85,0,0,1,5.18,18.13h0l-1.86,14.86.16,20.57,4.81,5.69,16.89,10.74,8.88,3.85h0c6.8,3.33,11.45,7.59,14.24,13h0l17.1,28.64,6.06,13.83,5.9,6.76,8.77,5.76a3.73,3.73,0,0,1,3,1c.9,1,1,2.94.46,6.5l1.08,11.76,3,6.83,1.08,6.08v1.08h0c-1,12.94.54,21.11,5.07,27.35v.11s.06,0,.07.09l2,7.92,3,5.82,1,3,4.17,21.88h0v.06c.07,9.17.86,22.61,4.21,34.53h0l1,4.79,6.91,7.77v.06h0a57.45,57.45,0,0,0,16.79,17.5l3.85.94a.41.41,0,0,1,.21.1l4,2.93,26.9,16.64,5,2.92,2,1a.25.25,0,0,1,.12.08l8,7.15,1.67.61c7.34,2.71,13.7,5,21.82,4.1h.34l4,2a.55.55,0,0,1,.3.33l1,2.79c7.68,4.38,12.81,11.09,16,15.79v.07a.18.18,0,0,1,0,.07l2,5.82,6.93,7.8a.37.37,0,0,1,.12.2l12.16,35.52,5.93,6.81v.09s.06,0,.07,0c5.15,11.09,14.1,18.5,24.56,20.32h0l13.94,3.86a.54.54,0,0,1,.2.1l5,3.93,4,4v.06h.06c.37.58.85,1.2,1.37,1.89a33.84,33.84,0,0,1,6.76,13.11,33.34,33.34,0,0,0,7,14.61v.06h0l4,7.9a.52.52,0,0,1,.07.27v.9l10.15,30.59c3.21,9.39,7.29,15.89,12.88,20.46h0l4,3.93h0c5.15,5.07,9.16,12.13,10.2,18l6,16.7,6.91,6.79a.33.33,0,0,1,.11.15l1,1.94c3.07,3.13,4.13,10.18,5.19,19h0l.12,15.88-1,4.13a.91.91,0,0,1-.11.16v.1c-9.19,9.33-17.15,15.24-25.83,19.18h0l-8.91,3.06h-.13a43.56,43.56,0,0,0-25.4,11l-7.87,7-9,6.07a.38.38,0,0,1-.13.09l-18.82,6.08-9,2.08-3.87,1a109.1,109.1,0,0,1-32.74,13.18h0l-12.88,2.08-17-.85H1017l-24.89-9.72a.63.63,0,0,1-.33-.35l-1-3h0c-1.16-6.65.22-11.51,4.06-14.45h0l5.92-5,20.79-13.11,11.72-11.93,3-2.07a.58.58,0,0,1,.74.06l2,2a.64.64,0,0,1,.14.22l2,5.94v.15l1.14,18.76c.81,2.31,2.26,3.45,7.07,2.5l4.76-5.83a1,1,0,0,1,.2-.15l4-2a1.1,1.1,0,0,1,.26-.06h1.86l6.73-3,24.47-20.87.91-2.83a.54.54,0,0,1,.15-.22l1.78-1.82c-.09-7.53-2-13.32-6-18.22h0l-12-16.77V1464h0c-3.23-6.35-3-10.55.93-15.52,3.82-7.81,4.66-15.63,2.69-25.22l-2.85-3.74-35.8-20.49-.17-.14-7-8.88v-.08h0c-4.41-8.64-12-14.23-17.68-17.43l-6.73-.9-7.81,2-21.83,4.17h-.11a.31.31,0,0,1-.19,0l-3-1-5.11-3-.15-.13-13-15.78-1.87-2.75-9.35.08L936.06,1367v2.75c.06,7.39-.49,18.33-5.81,28.08l-1,2a.59.59,0,0,1-.34.3l-45.53,15.25-15.66,8-4.84,4.9c-4.53,5.54-6.68,13.87-6.58,25.47-1.72,10.85,1.41,21.64,9,31.3l6.91,6.78,8.78,3.82,6.81.92,7.65-1,7.74-7.86a.58.58,0,0,1,.41-.17h3l10,1.92a.8.8,0,0,1,.25.11l4,2.94a.57.57,0,0,1,.22.33l1,4,5.12,18.8a.43.43,0,0,1,0,.16l.21,27,9-2.79,7.81-6a.56.56,0,0,1,.35-.13h2a.61.61,0,0,1,.35.11l4,3,10.07,9.89a.45.45,0,0,1,.1.14l8.06,14.81,1.07,4.08c2.07,6.08,2.12,13,.13,16.2L967.51,1598a1,1,0,0,1-.09.21l-8.8,13.93c-1.84,3.26-2.33,5.56-1.46,6.84s3.18,1.67,6.86,1.17l8.88-2,13.79-5.06,10.75-7,4-2h.14a6.18,6.18,0,0,1,5.73,1.38c1.8,1.73,2.54,4.69,2,8.16a7.34,7.34,0,0,1-7.19,7.49h-.28l-5.89,0c-3.39.52-5.81,1.75-7.2,3.67a8.49,8.49,0,0,0-1.13,6.62h0l1,7.93.09,10c0,5.25-2.13,9.38-7,13.37h0l-3.93,4a.41.41,0,0,1-.24.15L951.8,1675h-.18l-11.44.09c-2.91,14.62-8.8,21.82-18,22l-12.87,3.08h-1.12a.57.57,0,0,1-.26,0l-4-2-6.76-1.86h-1.91c-6,0-9.66,2.16-13.35,7.79-3,6-8,10.14-15,12.23l-3.95,2-.2.06-18.76,2-25.68.21-3.58,2.73a5.3,5.3,0,0,1-5.64,5.47,8.88,8.88,0,0,1-1.78-.18l-4.89,1-35.84.3-6.06-1a.51.51,0,0,1-.29-.13l-19.84-17.56h-1.61l-17.68,9-5.86,4a.49.49,0,0,1-.23.08l-12.79,2.08-5.69,2.89L694.7,1733c-1.7,4.34-.4,7.09,4.8,10.16h.08l3,3a.57.57,0,0,1,.14.63l-2.89,6.86v3.62l2.67,2.62,24.59.79c2.89,0,6.06.88,7.31,2.06h0l9,7.87v.1s.07,0,.09.07a5.26,5.26,0,0,0,3.55,3.06c1.87.4,4.11-.42,6.47-2.35h.09s0-.06.07-.07l4.84-2,2.87-2.9,8.78-11.92,6-6.07a.6.6,0,0,1,.33-.16l8-1.06a.45.45,0,0,1,.34.06l2,1a.44.44,0,0,1,.15.12l21,21.66a.47.47,0,0,1,.09.12l15,26.51,9.69,4.75,11.71.88,2.84-1,24.88-4.18h0c3.35,0,7.08.57,9.46,5.13l9,11.82h0v0c1.22,2.4,3.4,3.6,6.43,3.58l20.67-3.1,5.84-3a.49.49,0,0,1,.39,0l9,1.91,15,5.86,7,4.87h.71c5.1-2,10.26-1,15.38,3,4.06,4,9.1,4.74,16.41,4.7l5.8-3,2.91-1,2.86-2.89a.5.5,0,0,1,.27-.16l4-1a.47.47,0,0,1,.33,0l3,1a.57.57,0,0,1,.38.36L1009,1831l1.79.88v.06c0,.06.07,0,.1,0,1.82,1.79,2.85,4.35,4.41,8.21l.75,1.86v.23l.14,17.86,2.08,15.58,17.84,16.57,4,2.92,10.1,10.9,3,2.93a.33.33,0,0,1,.07.16.42.42,0,0,1,.09.16c1,5.56,2.8,9.45,8.53,10.36l8.91.93,9.87-.09a2.26,2.26,0,0,0,2-1.13,2.9,2.9,0,0,0-.52-2.93v-.16s-.07-.09-.07-.16l-.07-9.93,1.93-8.1a.57.57,0,0,1,.16-.27l1-1a.48.48,0,0,1,.22-.15l10.88-4,7-1.09a.68.68,0,0,1,.46.14l11,8.83a43.08,43.08,0,0,0,26.5,8.59l14.89-.11a.63.63,0,0,1,.27.06l10,4.88,9,5.92c4.58,1.82,7.06,4.57,8.27,9.2v.23l-3.57,26-1.94,7a.41.41,0,0,1-.1.21l-8.85,11a.69.69,0,0,1-.13.11l-2.7,1.83v2.6c1,5.74,3.82,9.45,8.59,11.33h3.82l18,1.84h.92a.6.6,0,0,1,.45.21l5,5.91a.52.52,0,0,1,.14.25l4.12,18.82.89,2.59,9.6,1.84,5.52,2,13.48,4.84,12,4.88,33.66,5.65h0c5.21,1,7.45,4.11,7.51,10.44v.36l3.89-4.73h0c5.65-5.75,13.14-7.93,19.73-9.87l1.29-.37,12.86-4.06h.07c.07,0,.06,0,.09,0,6.94,0,12.14,1.86,16.35,6v.12s.07,0,.09.1l5.08,13.84,5.13,19.86,1,5v.06c1.08,9,3.11,13.77,6,18.56l5,7.89a.79.79,0,0,1,.08.26l2.16,23.63,3.72,4.57h.71a.53.53,0,0,1,.3.09l22.92,12.71,5.87,1.88,84.43,16.19h.15l35.85,17.57c7.41,2.07,12.61,6.44,17.12,10.88l9,6.84,4.92,2.88,33.74,11.59,6.84.91.17.06,14.94,6.84,8.09,6a.4.4,0,0,1,.13.13l4,5.94,4.92,4.81,7.07,8.94,3,3.94a.63.63,0,0,1,.12.37v3.78l1.91,2.82,1.94,1.88a.62.62,0,0,1,.16.41l.31,38.7a.58.58,0,0,1-.37.54l-12.76,5-.81.83-3.84,9.83-.94,3.91a.48.48,0,0,1-.14.25l-17.71,19-4,3-3.71,4.71,1,4.61,6,10.8a.45.45,0,0,1,.07.25l1.15,18.79c1.08,6.12,4.22,10.64,8.66,12.36a.48.48,0,0,1,.2.14,41.73,41.73,0,0,1,9.17,14,.49.49,0,0,1,0,.24c0,5.27-2.19,7.54-7.47,7.58h-.7l-10.65,13.75h-.07c-.07,0,0,.06,0,.08-4,3-5.66,7.06-5.62,13.47l.47,2.41c2,10.33,4,21,7.69,31l3,4.87,9,13.82,3.07,7,8.06,16.77,13.33,52.46.88.85h0a24.82,24.82,0,0,1,9.19,14.09l1,3.95v.17l-.73,33.74-1,4.11a.61.61,0,0,1-.15.26L1640,2637.52v.77l-4.54,50.7a.54.54,0,0,1-.09.25l-3,5a.72.72,0,0,1-.25.24l-13.86,6.06a1,1,0,0,1-.24,0h-1l-26.84-.79-9-1.92h-.08l-1.19-.5c-6.44-2.68-11.09-4.63-15-8.45h0l-2-3a.62.62,0,0,1-.09-.27l-2.21-28.69-4-11.81a.57.57,0,0,1,0-.26l1-7v-1.76a114.6,114.6,0,0,0-20-30.36l-4-3.91a.69.69,0,0,1-.17-.41v-1.56l-9.54-2.77a.7.7,0,0,1-.24-.13l-9-8.87-.11-.15-1-2h0c-3-7.76-8.83-13.52-15.61-15.41h-.11l-1.92-.94-9.86-1.89-4-1h0c-2.7-.54-4.36-.44-5.25.31-.67.55-1,1.55-1,3.11v4a.54.54,0,0,1,0,.18l-1.93,6a.58.58,0,0,1-.41.39l-4,1-13,.13-8.09-1.93a.59.59,0,0,1-.42-.35l-5-11.86a.49.49,0,0,1,0-.17l-1.07-9.82-8.06-19.73-16-25.57-.79-.74c-6.8-1-11-2.88-13.16-6.08h0l-4-6.9v-.11h0c-4.47-15.56-14.87-29.72-30.93-42.12h0l-7-5.91a.4.4,0,0,1-.15-.19l-.83-1.64-7.57.06h-.16l-15.18-4c-3.39-.46-5.72-1.62-7.14-3.53s-1.87-4.54-1.32-8a.16.16,0,0,1,.06-.11c.06-.05,0-.08,0-.12l8.82-13,.09-.11,13.81-12,13.36-10.88-58.68,4.35-12.58,2.05-1.82,2.77a.43.43,0,0,1-.11.12l-11.82,10a.44.44,0,0,1-.15.08l-6.93,3h-.15c-6.32,1-11.57,1.93-16.61,5a5.29,5.29,0,0,1-2.09,1.05,4.8,4.8,0,0,0-1.75.87h0l-4.93,4-9.75,11.9h0c-6.27,7.42-15.41,11.24-27.16,11.34l-6,0-29.89-3.74h-4.57l-1.79,2.73-.9,1.84c-.09,4.15-4.09,8.24-8,12.2a.2.2,0,0,0-.14.06.27.27,0,0,1-.2.12l-6,1-43.68,4.33h-2l-11.59,4-3.81,5.79-4.84,9.91a.63.63,0,0,1-.25.26l-8.89,5a.67.67,0,0,1-.28.06l-32.77.27h0c-9.88-.8-19.48,1.51-29.38,7.11h-.1l-4,1H1012c-3.42,0-8-.67-10.35-4.05h0l-6-5.89a.4.4,0,0,1-.1-.15l-7-12.73-9.8-6.71L967,2473.18a18.27,18.27,0,0,1-2.76.25,8.48,8.48,0,0,1-5.61-1.66,6.32,6.32,0,0,1-2.15-5.07v-.13l1-4,1.91-9-.12-13.76v-.14c1.9-8.84-.2-14.45-6.82-18.16l-.1-.13c0-.05-.07,0-.09,0l-2-3-1.84-1.81-8.87-3.83-4.84-.91-.1-.06h0c-5-1.94-10.08-4-12.23-9l-8.92-7.81-3-3a.53.53,0,0,1-.17-.36l-1.08-10.9a.38.38,0,0,1,0-.15l1.9-11.92a.55.55,0,0,1,.31-.44l2-1,.19-.05,8.93-1.08,42.76.67,19,2.83,18,6.79,19.62,1.82,3.81-2a1,1,0,0,1,.33-.06l23.84,2.8h2.91l19,3.8h3.85l12.81-2.09,13.74-5,12-2.13H1117l8.52-8.64c0-2.77-.1-4.33-2.61-5.14,0,0,0-.05-.07-.06h-.12l-21-16.7-.12-.13-7-9.86a.43.43,0,0,1-.1-.24l-2.1-13.89a.38.38,0,0,1,0-.15l.93-7v-1.9c0-1.39-.23-2.22-.71-2.54s-1.29-.28-2.51.13H1090c-5.68.06-9.38-1.28-11.34-4h0l-17-15.75-8-8.9a.53.53,0,0,1-.13-.2l-1-3c-1.08-3.17-2.66-5.23-4.71-6.14s-4.43-.65-7.31.59l-2.77,3.75-3,14.23v.87a.57.57,0,0,1-.54.59l-23.81,2.18h0a.6.6,0,0,1-.32-.1l-9-5.89a.61.61,0,0,1-.16-.16L987,2264h-.67l-26-5.76h0c-3.76,0-7.69-2.55-10.17-5l-5.77-3.79-5,.87,1.75,4.27,2.09,9a.66.66,0,0,1,0,.28l-1,4-.93,6.89a.56.56,0,0,1-.25.41l-2.86,1.94a5.31,5.31,0,0,1-4.1,3.15h-.4c-1.82,0-3.71-1.09-5.26-3.09l-15-12.76-19-23.61-2.74-.89L860,2239.2a.49.49,0,0,1-.17,0l-8.86-2.87-14.8.12h-.09c-3.73-.5-6.44-1.85-8.05-4a9.63,9.63,0,0,1-1.46-7.5v-.18l3.91-8a.31.31,0,0,1,.09-.11l7-8-6.64.06a.48.48,0,0,1-.26-.07c-3.64-1.77-12.49-6.72-16.22-14l-18-27.52-21.81-12.64c-4.7-1.88-6.45-5.61-5.35-11.43v-2.95l-1-8.65-3.68-3.61c-4.11,0-6.33.21-7.12,2.63h0l-1,3h-.06c-.06,0,0,.09,0,.12l-9.83,14a.43.43,0,0,1-.21.19l-13.83,7.06-7.77,4.93a22,22,0,0,0-4.65,17.38c1.12,8.3,1.06,15.26-2.86,22.22-1,2.09-2.41,3.3-3.82,3.31h-.28c-1.33-.12-2.39-1.35-2.92-3.33l-3-7.9-2-4.87-18-23.6a.53.53,0,0,1-.11-.21l-1-4v-.23a18.58,18.58,0,0,0-6.89-17.28h0l-5-4.92L662.1,2122.5l-2.05-4-18.95-19.63-15.78-12.59-11.56.09-1.71.88-1.83,2.75-.92,2.82v2.88a.5.5,0,0,1-.06.24l-3.88,9-.12.19-2,2a.33.33,0,0,1-.16.07s-.07.09-.13.09c-4,.92-6.56,2.63-7.72,5.08s-.74,6,1.29,10h0l4,9.89a.74.74,0,0,1,0,.21v1.81l3.92,5.77v.06h0c2.22,4.9,2.44,9.62.62,13.32-1.61,3.24-4.66,5.46-8.81,6.43h0l-6.94,1-48.68,2.39h0a.52.52,0,0,1-.27-.07l-4-1.95-6.95-2.91-.12-.07-13.89-10.74-6.85-1.9h0a9.76,9.76,0,0,0-7.83.52,6.63,6.63,0,0,0-3.29,4.12.41.41,0,0,1-.07.11v.1l-2.94,4-8,7.09a.59.59,0,0,1-.17.1l-4.95,2h-.15l-9.92,1.07-8,.07a.62.62,0,0,1-.43-.18L446,2147.16l-24.76-8.68-6.11-4h0A102.66,102.66,0,0,0,379.46,2116l-4.94-1a.58.58,0,0,1-.22-.08l-6-3.93h0c-5.28-4.15-9.09-5.76-13.58-5.72a94.05,94.05,0,0,0-40.56.3h0l-6,1-13.7,6-21.51,14-.9,2.78a.6.6,0,0,1-.55.41h-5a.72.72,0,0,1-.29-.06l-7-3.92-.12-.09-9-8.87-.1-.15-.7-1.37-9.08,6.47v1.67a.7.7,0,0,1-.15.39l-5.91,7a.34.34,0,0,1-.15.14l-8.89,5h-.06a42.8,42.8,0,0,0-16.56,12.87l-3.91,5h0a23.09,23.09,0,0,1-17.44,7.46q-1.83,0-3.81-.18c-.06,0-.08,0-.12-.06s-.1,0-.16,0l-2.92-1.92-2.91-1-13.87-2.84h-.15l-10.84-5.8h-4.73l-9.8,3h-3.17L88.31,2160l-32.42,22a32.65,32.65,0,0,1-20.58,7.55,37,37,0,0,1-12.71-2.23c-8.37-3-13.34-8.33-14.39-15.25h0V2169c1-5.2,5.08-7.33,9.05-9.36l2.83-3.84c3.58-6.39,2.17-11-4.87-16l-5.79-1.87H8.55l-8.11-1.94a.66.66,0,0,1-.19-.09l-3-2a.45.45,0,0,1-.14-.1l-42-47.27c-1.27-1.24-4.94-3.92-11.32-1.74h0l-4,1-2.66.92-11.54,28.54v2.85a.57.57,0,0,1-.16.41l-17.73,18-45.46,32.19-.91.93a.53.53,0,0,1-.31.17l-22.8,4.14-2.86,1h0a16.27,16.27,0,0,1-5.55,1.23,6.1,6.1,0,0,1-3.55-.94c-1.74-1.19-2.64-3.44-2.67-6.7l0-7.84-3-7.77c-1.79-3.51-4.35-4.61-8.28-3.59H-188l-18.87-1.85a.56.56,0,0,1-.44-.25.61.61,0,0,1-.07-.51l1-3h0c2.85-6.83,2.8-14.53-.16-22.29l-.89-.89a.52.52,0,0,1-.18-.41h0c-.07-8.91-.12-16,2.82-24h0l1.94-5a.6.6,0,0,1,.09-.15l3.84-4.89.92-4.81,1.82-18.73-2-8.82-5.07-16.8L-216,2013.77Zm532.89,63.7v-5s0,0-.05-.07a.31.31,0,0,0,.05.1Zm-847.5-949.72c2.42,10.08,6,18.15,11.33,25.15-5.33-7-8.91-15.07-11.33-25.17Zm79.32,240a29.48,29.48,0,0,0,15.61,8,29.58,29.58,0,0,1-15.67-8Zm506.8,297-.32-40.67Zm-40.42-90-.27-32.62Zm347-23.33c1.94,5.66,2.82,12.16,2.67,20.1.15-8-.73-14.49-2.67-20.15ZM-24,948.14a17.36,17.36,0,0,1-4.92,1.14A17.49,17.49,0,0,0-24,948.14ZM366.11,1595.5c.73,5.51,4.58,9.69,10.66,11.81-6.08-2.12-9.93-6.3-10.66-11.82h0Zm-484.69-411v.08l1.2,25.8-1.2-25.82a.1.1,0,0,1,0-.06ZM27.44,1431h0l7.81-4-7.82,4Zm482,87.89-5.22-31.75h0ZM21.68,1600.42a29.15,29.15,0,0,1-8.1-24.84h0a29.14,29.14,0,0,0,8.09,24.86ZM410,1839.54a28.9,28.9,0,0,0-15.58,4.77A28.9,28.9,0,0,1,410,1839.54Zm367.69-417.82h0l1-5.09Zm387.36,553.51v3h0Zm-433.36-67.47-5.91-4.85,5.91,4.86h0Zm1321-1796.52-19.18-37.58h0ZM1996-49.53c1.57,12.92,6,25.13,10.88,36.58h0C2002.08-24.41,1997.61-36.61,1996-49.53Zm-28.62-73.1,10,13.78h0Zm-2410,1381.21-2.16-18.91ZM713.29,2201.5a1.7,1.7,0,0,1-1.12-.74A1.7,1.7,0,0,0,713.29,2201.5Zm889.59,157.41,1.16,18.72h0Zm-289-323.41,1.26-.38h0Zm-158.14-625.42,4,3.93h0Zm-1854.21-67a10.09,10.09,0,0,1-2.83-6.45,10.07,10.07,0,0,0,2.86,6.46Zm12.55,28.27-.1-12.56h0ZM-346,1948.47v0h0l2.9-11,9.6-18.63-2.62-2.15a.59.59,0,0,1-.18-.66l1-2.49c1.1-5.81,3.42-9.17,7-10.21l2.85-3.88c.23-2.16,2.57-2.26,6.43-2.29l12.84-.09c4.09-1.39,6.95-1.38,8.72.06s2.48,4.49,1.92,9.37v2c0,6.15-4,12.36-10.11,15.48h0l-14.79,8h-.05a.63.63,0,0,1-.27.06h-.09c-2.27-.54-4-.38-5,.43a3.61,3.61,0,0,0-1.17,3c-1.68,8.82-7.36,13.69-15.76,13.76a22.28,22.28,0,0,1-2.58-.12h-.16l-.14-.11-.17-.14a.57.57,0,0,1-.07-.22C-345.93,1948.58-346,1948.54-346,1948.47Zm-67.49-11,2,3.88a.7.7,0,0,0,.18.2l8,5.89a.66.66,0,0,0,.19.09l7,1.94h.17l7.94-.07a.57.57,0,0,0,.57-.57v0a26,26,0,0,0-5.2-16.19h0l-11.94-13.73-3-6.8c-.93-3.62-.77-6.11.52-7.46s4.31-1.72,8.65-.78h.13a.15.15,0,0,0,.15-.07.4.4,0,0,0,.21-.09h.06l1.95-2h0c3-3.08,4.12-8.21,3-14.42a.39.39,0,0,0-.09-.23c-3.23-4.77-9.07-9.68-18.6-6l-7.92,3a.55.55,0,0,0-.31.29l-4.89,10v.14l-1,5h0c-2.12,15.32,1.92,27.76,12.27,38Zm105.66-1.39h0c-.62,0-1,.5-1.43,1a5.56,5.56,0,0,1-3.08,2,.6.6,0,0,0-.37.29l-1.4,2.48A27.19,27.19,0,0,0-326,1959.06h0l-1.94,5v.14c-1,8.68.33,13.46,4.4,15.44a.48.48,0,0,0,.26.06.59.59,0,0,0,.38-.14,43.62,43.62,0,0,0,14.9-24.24h0l1.89-13v-5a.59.59,0,0,0-.17-.42,2.22,2.22,0,0,0-1.51-.78ZM-375,2023.89c0-.07-.11-.08-.17-.11a.67.67,0,0,0-.15-.14l-5.75-1.87L-382,2020a.63.63,0,0,0-.65-.31l-14.85,3.1a.57.57,0,0,0-.41.31l-1,2a.59.59,0,0,0-.07.26v3l1.18,23.8a.59.59,0,0,0,.6.56h2l22.82-2.15a.57.57,0,0,0,.43-.27l2-3v-.14a.24.24,0,0,0,.07-.13,37.77,37.77,0,0,0-5.2-23.1h0Zm-59.47-72.77c-1.84-1.41-4.8-1.54-9.26-.38h-.12l-7.91,4s0,.06-.05.07a.34.34,0,0,0-.15.18.66.66,0,0,0-.09.19v.08c.06,6.47,2.44,11.47,7.33,15.32,2.9,1.9,5.24,2.83,7.08,2.82a4.66,4.66,0,0,0,1.77-.35c1.55-.7,2.54-2.36,3-4.94h0l.91-9.93h0v0c-.13-3.52-.91-5.76-2.55-7Zm-75.08,367.31-9-7.87v-.06c0-.06-.05,0-.06,0-1.82-2.67-6.42-3.65-12.35-2.63-.73.26-1.52.52-2.31.79-4.76,1.56-8.87,2.9-12.15,7.06-5.62,5.71-10.62,8.25-16.27,8.29h-.13l-5-1a.57.57,0,0,1-.34-.22l-12-14.78a.47.47,0,0,1-.11-.25l-1-4.94v-.19c1.74-16.89-4.37-27-18.68-31h0a1.29,1.29,0,0,1-.17-.16s-.13-.08-.15-.14a.45.45,0,0,1,0-.23c0-.06-.05-.13,0-.19h0l4.79-13.75-.93-3.62c-3-2.17-4.12-7.07-3.14-14.26-.07-6.74-.11-11.67-3-16.47h0l-3-6.86c-6.25-10.2-12.74-17.1-18.86-20A216.6,216.6,0,0,1-634,2279.41l-1,5.93c0,5.37-3.26,9.43-9.24,11.46h-.19l-8.91.07a.49.49,0,0,1-.17,0l-10-2.9c-.08,0-.11-.08-.16-.12s-.09,0-.13-.06c-4.82-5.69-8.09-13.53-9.23-22.07h0V2267a55,55,0,0,1-14.14-31.79h0v-5a.5.5,0,0,1,.1-.31l23.37-37.86v-2.81l2.85-16c0-9.44,5.1-18.54,14.9-26.28h.12s.07-.07.13-.08l5-1,23.93-.2a.64.64,0,0,1,.3.08l5,2.94,9,5.89,9.81,3.83c7.22,2,11.61.59,15.17-4.85h0v-.05l6.89-8h0s0,0,0-.06c6.19-4.5,9.15-9.81,12.58-16l1-1.77,3.88-9.93c3-8.08,3.77-16,2.72-26.54h0l-.2-24.8,1-5c-1.06-8.07.94-12.36,6.32-13.49h.25l4,1a.48.48,0,0,1,.26.16l9,8.85,3.06,4v.1s0,0,.06.07l.94,2.71c2.85,8.24,6.39,18.51,8.29,31.05l7.34,49.56a1.22,1.22,0,0,1,0,.27l-1.95,6-1.84,14.8c0,.09-.08.14-.12.21a.24.24,0,0,1,0,.12c-2.17,2.2-4.73,6.49-4.68,14.45l3.08,14.8h0c.5,4.16,1.87,7,4.12,8.57s5.25,1.75,9.12.75h0l28.73-6.19,7.84-3h0c4.3-2.18,7.59-.88,10.65,4.14v.06h0l11.22,30.64,2,6.86,23,31.47a.44.44,0,0,1,.08.15l3,7.91v.2c0,4.53,2.63,7.33,6.79,10.4,16.35,12.07,25.31,27.38,27.41,46.83a.16.16,0,0,1-.05.14v.14l-1.94,5a.07.07,0,0,0-.07.06c0,.06,0,.1-.05.15-3.67,3.71-11.12,5.59-14.16,6.22-5.22.06-10.46,1.78-15.51,3.45-1.74.58-3.5,1.15-5.24,1.67a.33.33,0,0,0-.14,0l-21.83,1.17h-.19l-6-1.94c-.07,0-.1-.08-.14-.12s-.11,0-.13-.07a60.61,60.61,0,0,0-30.64-20.39h0l-31.86-11.66a.4.4,0,0,1-.09-.21Zm75.27-214.95h0c-4.4-1.07-7.49.33-9.46,4.19l-3.78,2.9-8.79,4-3.74,1c-6.08-3.08-8.35-8.16-7.59-16.92l2.76-2.81c7.69-4.91,10.12-11.53,8.95-24.38l-1.1-13.88a.61.61,0,0,0-.17-.39l-5-4.91h-.09s0-.05-.06-.06a10.37,10.37,0,0,1-5.71-9.36v-4a.54.54,0,0,0,0-.18l-3.05-8.9a.54.54,0,0,0-.19-.28l-4.77-3.76V2024a.49.49,0,0,0,0-.17l-2-6.93a.52.52,0,0,0-.38-.39l-6-2h-.18c-2.45,0-3.14.66-3.88,1.62a5.27,5.27,0,0,1-.49.57c-.05,0-.05.12-.07.19s-.09.09-.09.14l-.94,6.93c-.89,4.67-4.55,6.55-11.42,8.58h0a5.21,5.21,0,0,0-4,1.72c-1.7,2-2.13,5.55-1.31,11,2,5.79,4,8.06,8.07,9.15l6.11,27.41a.75.75,0,0,0,.1.2l2,2.93a53.31,53.31,0,0,1,7.1,26.52,24,24,0,0,0,9.18,16.09l17,26.52a31.19,31.19,0,0,0,9.22,19h0l3,2.94c.05.07.13.07.21.09a.42.42,0,0,0,.14.09h.07c1.06.07,2.08.13,3.05.12,8.82-.08,13.38-4.14,14.28-12.63h0l5.73-28.83a.67.67,0,0,0,0-.2l-2.1-14.87-1.05-6.94v-.14c-2.28-5.26-6.5-9.31-9.6-9.28Zm147.6,532.4c0,.06-.06.08-.07.13a.33.33,0,0,0,0,.1l-3,4a.56.56,0,0,1-.33.21l-4,1h-.15a.53.53,0,0,1-.32-.1l-29.83-19.52-17.51-2.7-2.77,1.88h-.12s-.07.06-.11.07a30.06,30.06,0,0,0-18.4,10.85l-3.86,5.87-1.91,6.87h0a72.8,72.8,0,0,0-2.7,29.56h0l.07,7.94v.09a.17.17,0,0,1,0,.1c-2.42,7.4-5.23,11.48-8.59,12.47a6.33,6.33,0,0,1-1.56.23,9,9,0,0,1-5.61-2.39.16.16,0,0,0-.07-.13c-.07,0-.07,0-.08-.06l-1-2v-.07h0c-3.32-9.47-9.59-13.28-20.4-12.28h-.17l-9.95-2.89a1.28,1.28,0,0,1-.25-.15l-1.86-1.81a7.67,7.67,0,0,1-6-2.41c-1.41-1.7-1.87-4.14-1.32-7.06l-.18-21.82a5.43,5.43,0,0,0-4.51-5.33h-3.87l-10.8,2.06h-.31l-8-2.91a.59.59,0,0,1-.3-.24l-11-17.69-6.9-4.82a.51.51,0,0,1-.21-.29l-.92-2.72c-6.16-2.08-9.14-6.23-8.15-11.4a180.75,180.75,0,0,0-3.3-34.42l-2-3.83c-5.23-9-11.56-15.54-18.78-19.48a.08.08,0,0,0-.06-.07c-.06,0-.05,0-.08,0l-4-3.94a.6.6,0,0,1-.17-.38l-1.12-17.86.91-9.05a.55.55,0,0,1,.12-.27l32.4-43.93a.6.6,0,0,1,.28-.22l3-1,7.9-3.06h.06a.09.09,0,0,1,.07,0c7.32-1.09,12.48,1.11,14.58,6.2v.06h0l9.25,40.62v.09h0c.09,11.92,3.29,22.8,10,34.21l1.73.84,78.33,4.32h0c8,0,14.22,4.7,18.48,14.1v.05h0l1,4h0l9.21,41.37,2.7,1.78,7.86,1.9,22.92,6.78h.15c6.14,4,7.58,9,5.54,18.55Zm2036.12-200.75a.5.5,0,0,0,.22.31l4,2.95.15.08,5,2a.54.54,0,0,0,.21,0l4,0c6.09,0,10.41-1.65,12.84-4.77,2.7-3.46,3.19-8.65,1.47-15.91a.13.13,0,0,0-.07-.06.14.14,0,0,0,0-.09l-8-13.83a.59.59,0,0,0-.38-.29.62.62,0,0,0-.46.09l-14.78,10-1.93,1-.07.07c-.07.07-.06,0-.09,0-3.12,3.17-3.07,8.35-3,14.33v.15Zm-57.21,183.4h-.09l-.05-.05-3-1a.63.63,0,0,0-.6.14l-4.85,5c-5.94,4.3-12.6,10.2-16.91,21.24h0l-1,3a.69.69,0,0,0,0,.35l1,4h0c4.39,12.81,6,25.68,5.25,40.44h0v5.95h0a.45.45,0,0,0,.12.21.61.61,0,0,1,.07.14.53.53,0,0,0,.4.14h.09c6.76-1.19,13.5-6.82,17.19-14.35,4.46-9.1,6-20.56,4.74-36,0-6-.09-10.83,1.82-17.71V2630a0,0,0,0,1,0-.05V2628C1698.1,2624.64,1696.66,2621.45,1692.23,2618.53Zm82.84,181c-.31-1.24.46-2.6,2-4.77l1.87-17.76v-5.83a117.15,117.15,0,0,1-2.37-49.71v-2.94c0-5.13.8-8.2,2.77-9.95,1.67-1.51,4.2-2,7.72-1.62h.2c1,.47,2.28.88,3.23.16s1.38-2.89.84-5.51c-1-5.5-.32-9,2-11.44,8.17-6.47,19.55-9.44,32.17-8.37h0l8,1.91a.13.13,0,0,1,.11.08.91.91,0,0,1,.16.11l.12.2.07.07,1,5.7,7.78,4.76,1.93,1,3.86.91c.06,0,.08.06.12.09s.11,0,.16,0c4.55,4.5,5.2,10.24,5.24,15.27h0l-1.81,21.85a.38.38,0,0,1-.1.27l-1.94,3-2.91,5a1.44,1.44,0,0,1-.14.15l-18.74,16-3.9,3L1808.9,2785c-5.29,11.63-14.1,17.38-26.85,17.48-1.08,0-2.19,0-3.34-.09a.79.79,0,0,1-.22-.06c-1.9-.85-3.14-1.65-3.42-2.83Zm2.61-78v0Zm77,218.92c1.26-2.1.93-5.16-1-8.88v-.13l-4.11-16.84-.06-7c-1.08-7.92-4.1-13.58-8.79-16.33v-.07h-.07l-9-8.86s0-.09-.06-.11-.1-.11-.12-.19c-1.07-5.16-.59-9,1.41-11.51,1.67-2.07,4.34-3.12,7.94-3.16h0l12.67-1.08.73-.72,1.78-6.86c2-9.55,7.47-15.39,15.25-16.45h.19l5,1c.06,0,.1.09.17.11s.13,0,.17.11l6,7.89a.72.72,0,0,1,.07.25v.17h0a21.4,21.4,0,0,0,3,15.46v.11l1,3v.2c0,1.5.74,4.35,3.41,4.33h4a.6.6,0,0,1,.5.27L1902,2886h0c4.34,7.46,6.14,13.58,6.2,21.08v.21l-2,5a1,1,0,0,1-.07.15l-37.37,46c-4.6,6.53-12.57,10.37-21.26,10.45a28.4,28.4,0,0,1-2.92-.13h-.07c-.06,0-.11-.06-.17-.08s-.14,0-.18-.09l-4-3.94a.61.61,0,0,1-.17-.48l.93-9.91a.61.61,0,0,1,0-.19l3.89-9a.23.23,0,0,1,.13-.18l1-1a.16.16,0,0,0,.12-.06.77.77,0,0,1,.29-.1c4.17-.12,7-1.24,8.29-3.33Zm-4-26-.06-7h0v.05Zm261.24-329.54v.19l3,8.89a.69.69,0,0,0,.39.38l17,4.85,22.85,1.8h.05c1.62,0,3.41,1.64,3.42,4.35a.2.2,0,0,0,0,.13c.05.05,0,.09,0,.12l1,1.92,9.12,25.61,1.08,7,1,3a.72.72,0,0,0,.11.19l12,14.75,2,3a.56.56,0,0,0,.41.25l16.88,1.84h.29c5.86-2,11.94-4.08,14.94-6.14h0l3.95-3c.05,0,.05-.13.1-.2s.06,0,.06,0c3.14-7.43,2.75-14.62-1.16-21.35l-8-13.75-3.94-16.74-1.52-64.62-2-7.87-4.16-24.79a1.8,1.8,0,0,0-.08-.21l-3.1-5-7-7.9a.59.59,0,0,0-.45-.18h-2.86l-10.87-1.89-21.86-6.76-3.84-1.88c-4.24-5.14-10.47-9-19-11.78l-2.83-1.86-9-17.64c-2.21-5.38-6.4-9.13-11.25-10.13l-4.84-3.78-12-12.81-.21-.09c-.07,0-.14-.09-.2-.09h0c-12.44.1-24.11,3.26-37.84,10.27l-22.74,7.1a.53.53,0,0,0-.23.16l-3.94,4v.06h0c-4.84,6.87-3.34,14.19,4.19,20.57h0l22.94,22.57c5.57,9.87,7.88,19.45,7.07,29.31h0v3a.59.59,0,0,0,.13.36l10,12.82a.67.67,0,0,0,.25.16l13.87,5.83,18.9,14.76,4,2.94h.13s0,0,.08.06c4.46,1.08,4.17,6.25,3.6,9.22h0v.05Zm138.2,132.29L2254,2721l12.16,18.86,15,14.81,45,36.36,11,7.86a.54.54,0,0,0,.34.12,4.77,4.77,0,0,1,3.46,2.62.35.35,0,0,0,.18.2c6.09,4.48,12.26,8.47,20.27,8.4a25.3,25.3,0,0,0,5.06-.56h0l4-1,.15,0,10-6.13,3-3a.66.66,0,0,0,.12-.17l8.76-20.93c5.31-13,5.55-25.82.71-37.16h0l-13.1-25.71c0-.06-.08-.11-.13-.16l-5-4.91a40.28,40.28,0,0,0-19.13-10.9l-5-1.94a.62.62,0,0,0-.27,0l-28.57,3.11-9.76-.9-7.85-6.76a.58.58,0,0,0-.25-.12l-4.1-1-27.6-.78-15.83-13.62h0c-2.88-2.82-6.67-4.05-12.3-4h-.06l-22.83,2.16c-.06,0-.11.06-.17.09l-.19.1a.5.5,0,0,0-.08.2c0,.07-.08.12-.08.2v3c-1.82,13.66,2.77,22.94,14.43,29.16h0Zm-177.59,12.71v.07h0c.61,5.2-.14,8.92-2.26,11.35-1.93,2.17-4.92,3.26-9.14,3.29a.7.7,0,0,1-.25,0l-4-2c-5.45-2.66-11.43-4.85-18.47-2.8-6,.67-10.89-.42-13.83-3a8.28,8.28,0,0,1-2.85-6.32h0a.56.56,0,0,1,.15-.41l2-2a.6.6,0,0,1,.21-.14l13.87-5.08,24.89-4.19h.05c6.11-.06,7.5,2.86,7.56,5.36Zm-9.53-10.06c4.21,0,6.36,1.42,6.4,4.35a.09.09,0,0,1,0,.07.17.17,0,0,0,0-.1C2069.33,2721.27,2067.18,2719.83,2063,2719.85Zm155.6,164.27v-.07h0c4.49-8.21,8-15.78,5.81-25.26h0l-1.08-3.11L2207.25,2831l-.06-.06c-.06-.06,0,0,0-.07-5.61-4.58-7.8-9.17-7.87-16.36h0a1.91,1.91,0,0,0-.09-.2.57.57,0,0,0-.12-.18h0l-3-2a.62.62,0,0,0-.48-.08l-27.73,7.17c-.05,0-.07.07-.12.09s-.11,0-.15.07c-4.1,4.15-6.07,8.2-6,12.37v.14l6.13,23.63v3.74l-6.84,7.75-4.9,8c-4.59,6.5-7.83,12.59-8.84,21.06l-1.92,7h0c-1,7.08,1.93,9.36,8.29,11.44l.92.89a.56.56,0,0,0,.32.17l12.8,1.86,4.89,2.89a.51.51,0,0,0,.29.08h.14l13.86-3.09a.46.46,0,0,0,.26-.15l18.73-17a.57.57,0,0,0,.11-.11l1.91-3Zm-917.55-2.42-97.32,7.74h0c-15.32-1.58-30.09,1.1-45.19,8.22l-2.88,2.92a.47.47,0,0,1-.19.12l-18.7,8.05-5.74,5.81-1.77,4.57,3.79,4.66,7,6.84c2.09,1.56,3.17,3.19,3.18,4.85s-1,3.35-3.16,5h0l-12.07,7-.14.07-4,1-25.86,2.23h0c-1.62,0-2.68.36-3.23,1.06s-.65,2.17-.13,4.2v.13l.14,18.86a7.3,7.3,0,0,1-2.47,5.84,8.91,8.91,0,0,1-5.78,1.95,13.67,13.67,0,0,1-2.12-.17l-2.81,1c-9.35,5.27-19.95,7.29-31.83,9.22h-.06a.55.55,0,0,1-.38-.16l-.08-.13a.45.45,0,0,1-.12-.21v-.06l-1.13-16.77-3-6.85-5-13.76-5.83-6.68-3.79-.91a.46.46,0,0,1-.16-.07l-15-8.81a.69.69,0,0,1-.17-.17l-7-9.88a.59.59,0,0,1,0-.65l2-3h0c5.55-6.78,11.73-10.24,20-11.25l14.58-8.91,1.81-3.69-2.2-28.6,0-5c-1-10.49-6.58-16.27-16.46-17.2l-10.84.09c-1.51.12-3,.18-4.53.19a66.46,66.46,0,0,1-35.6-9.87h0l-11-7.85L945.63,2810l-13.7-9.62-23.62,1.17-9.88,1.07-26.88-.78a.49.49,0,0,1-.17,0l-9-2.89h0c-13-5.31-22.52-12.43-29.21-21.82V2777s-.06-.06-.07-.1L830,2765v-.15a4.06,4.06,0,0,0-3.78-4.32,4.53,4.53,0,0,0-.64,0c-1.77-.35-4-.46-5.12.8s-1.11,3.36-.21,6.42v.13l2.29,37.68v.07h0c-.9,9.69-1.75,18.84-7.8,27.08a94.91,94.91,0,0,0-5.7,22.62v5.5l2.58.83a.07.07,0,0,0,.07.07.38.38,0,0,0,.11,0c5,3.88,10,7.92,14.14,13.92h0l1.93,3.78c8.82,4.56,10.1,11.44,10.16,18.28l.19,23.65,11,17.63a.63.63,0,0,1,.08.23l5.25,37.53,1.92,2.84c3.89,5.35,9,9.48,14.36,13.87,1.47,1.19,3,2.42,4.46,3.67,5.21,2.05,8.24,6.17,8.3,11.28a66.21,66.21,0,0,0,16.94,28.29v.1s.05,0,.07.05l6,11.81,9,9.77h0c4.68,5.54,6.32,13,5.28,24.22h0l-.94,5-4.91,12.08-1.88,4.8c2,11.87,6.53,21.85,12.92,28.18l35.9,26.5,4.93,2.91L978,3172l4,4a.59.59,0,0,1,.17.42v3l-1,4.11v.16c-2.49,4.24-3.78,11.35-3.73,20.5l20.6,94,9.11,23.68,5.1,16.86a.49.49,0,0,1,0,.17v3.87l7.07,19.7,2,4.9,22,30.48a.62.62,0,0,1,0,.71l-12.69,15.89-.93,3.79c-.51,3.83-.13,6.49,1.14,7.92a4.08,4.08,0,0,0,3.31,1.28h.07c.08,0,.11.06.17.08a.53.53,0,0,1,.21.11,1.8,1.8,0,0,1,.08.21c0,.07.07.11.07.18h0a.7.7,0,0,1-.12.28v.08a.46.46,0,0,1-.29.13h-.11l-19.86-1.84L997,3428.88l-.82,2.51,1.08,10.78,1,5.73,7.88,7.74a.56.56,0,0,1,.17.36l1.06,8.91a.66.66,0,0,1-.13.45l-5.75,6.81,1.23,31.51v.06c1,6.68,2.08,13.6,6,18.38l11,10.8,32.93,26.51a.62.62,0,0,1,.22.35l3.09,17.75,3,5.77,25.93,25.51,20.16,28.71v.14s.07.08.08.13c1.14,9.58-.06,15.36-4,19.36a.11.11,0,0,0-.09,0h0l-10.87,6-3.88,3a.56.56,0,0,1-.35.13h0l-22.83-.81-8-1.93c-11.85-1.74-20.52-6.14-27.26-13.88-7.07-9.92-11.18-19.95-12.28-29.88l-1.9-3.73L994,3602.51l-31.68-4.67h0c-4.11-1-5.56-5.6-4.52-14.46v-3.74l-28.93-35.32-18.89-14.66v0c0-.05,0,0-.06,0-5.24-6.18-8.16-13.33-8.24-20.1L899.19,3488l-2.64-1.75-26.69-2.75a.49.49,0,0,1-.17,0l-9-3.88a.6.6,0,0,1-.23-.19l-3-3.95a.55.55,0,0,1-.12-.35l-.33-41.61c-2.16-9.31-4.26-13.51-11.6-15.28h-.09l-4-1.95-10-5.9-.12-.11-29.05-31.52-4.92-3.88-16.72-8.68h-1.69l-6.77,4a.79.79,0,0,1-.3.08l-40.45.32-1.69,1.72L724.85,3392a.81.81,0,0,1-.1.21l-3,4a.11.11,0,0,0-.09,0c0,.05,0,.07-.06.09a53,53,0,0,0-18.49,20.76h0l-3.84,6.85-1.74,28.64a36.23,36.23,0,0,1-7.89,23.22l-8.79,13.93-4,5a.36.36,0,0,1-.16.14l-6.81,4-1.82,2.78-4.71,28.7a.48.48,0,0,1-.15.32l-1,1a.49.49,0,0,1-.41.18c-7,.06-11.56,1.56-14,4.6-2.2,2.81-2.6,7-1.22,12.66,1.07,8.87.17,15.12-2.88,20.3a62.26,62.26,0,0,0-7.62,31.47l7.25,37.59,6,13.68c2.86,3.78,4.1,7.71,4.15,13.13a.63.63,0,0,1-.17.43l-2.95,3h-.08s0,0-.06.06c-6.71,3.9-11.63,9.84-15.49,18.7h0L628,3700.38c-1,7.61-3.21,12.31-7,15.21a.52.52,0,0,1-.35.14.61.61,0,0,1-.34-.12l-21-14.71-5.8-2.9c-9-1.1-10.29-7.33-9.45-16.38l-.06-6.72c-4.44-6.66-5.09-15.74-5.16-23h0l3.69-33.68-1-4.86-4-8.77h0c-4.49-8.79-4-17.39-3.21-23.11h0v-.07l.95-2.86c-1-5.79-.15-9.88,2.91-14.08l.93-3.88,2.93-6,1.64-42.59a.61.61,0,0,1,0-.19l1.89-4.81c-2.26-9.92-1.68-16.44,1.89-21.06l3.71-13.34-12.5-5.65a.66.66,0,0,1-.17-.12l-4-3.94a.29.29,0,0,1-.1-.12L566.34,3449a.74.74,0,0,1-.08-.29v-5c-.06-5.83-2.07-9.78-4-13.6-2.71-3.54-8.13-4.52-15.49-5.52h0a.43.43,0,0,1-.16,0l-5-3a.09.09,0,0,0-.07-.08c-.07,0-.07,0-.08,0-5.16-6.07-7.25-15.37-9.28-26-.06-6.93-3.07-11.65-9.76-15.4h0l-23-16.7a.8.8,0,0,1-.13-.13l-2-3a.63.63,0,0,1-.1-.29l-2.29-38.69-1-3.64-14.8-10.68-3-2.93-4.79-.93-9.79.1c-1.2.07-2.35.12-3.46.13-7.21.06-12.25-1.43-15.34-4.53s-4.24-7.55-3.79-13.91v-.18l1.91-4.89,1.85-20.79-1.09-11.78c-1.06-9.81-6-19.52-13.94-27.31h0l-12-13.78V3206s-.05,0-.06,0a15.41,15.41,0,0,0-13.41-8.48l-30.66,5.19h-4.07l-29.66,4.2h-.08c-.87,0-1.56,0-2.42,2.61h-.05s0,.09,0,.13l-11.78,15h0a5.55,5.55,0,0,1-2.27,1.3c-.52.22-1.11.45-1.84.81-6,2.08-10.65,4-11.54,8.63a.53.53,0,0,1-.17.31h0l-5.9,5h0c-5.72,3.89-7.61,11.68-9.49,21.49v4.89c.1,13.05-.83,22.93-5.72,32l-.94,5.89h0c-3.87,21.25,1.53,36.47,17,47.89l3,1.95.1.15c0,.05.11.07.12.13,5.1,12.93,5.22,27.08.35,42.06l-.06,0c-.06.05,0,.09,0,.12l-16.69,22-16.8,17.07a.58.58,0,0,1-.41.18h-.06l-19.86-1.81a.6.6,0,0,1-.48-.33l-1-2v-.15c0-.06-.05-.09-.05-.15a67.35,67.35,0,0,0-6.18-34.39,77.4,77.4,0,0,0-14.8-15.5l-16.87-7.78-4.94-1.93c-.06,0-.09-.1-.14-.15s-.08,0-.1-.05c-2.43-3.16-6.18-4.31-10.92-5.76l-2.66-.83h-4.88c-12.07.08-21.1-2.84-30.22-9.81a.14.14,0,0,0-.07-.12c-.07,0-.05,0-.07,0l-3-4.94v-.08a.16.16,0,0,1-.06-.08c-2.24-8.68-2-17.45.79-24.09l3.83-17.88,1.93-8c0-.07.08-.12.12-.17a1.74,1.74,0,0,1,.11-.18c2.68-1.8,2.57-6.6-.31-13.16v-.11l-1-5-6.1-18.73v-2.19c0-2.37-.7-4.07-2-5-1.69-1.25-4.52-1.35-8.21-.25h-.15c-2.81,0-4.7-.61-5.78-1.9s-1.3-3.08-.83-5.62c0-5.25-.08-9.19-.1-11.82v-7c0-5.29-1.23-8.81-3.84-11.41l-1.89-.92-.14-.11-3.93-3.88c-12.31-5.05-21.21-14.12-27.19-27.76l-6-9.8L81.25,3163l-12.09-14.86v-.09h0c-6.49-13.62-11-30-13.34-48.64v-.05a.23.23,0,0,1,.06-.19.81.81,0,0,1,0-.22l2-3c12.76-19.47,28.73-38.5,41.25-52.91l1.91-4.87h0c1.85-3.8,3-5.2,5.23-5.31l7.87-4,28.54-21,6.75-6.87,1.86-3.8,2.65-38.51L153,2955c-3.73-2-5-6.59-6.73-13.5l-.39-1.51h0l-4.16-23.78-2.93-53.58-1-3.78c-3.88-8.53-11.58-15.4-21.65-19.33h-.07l-8-4.91-4.11-4h0c-6.69-7.52-11.57-15.91-15.5-22.67l-.65-1.1h0L75.69,2784l-4.94-6.78-46.88-37.29c-19.35-13-29.89-29.85-34.14-54.35l-2.16,2.92a.41.41,0,0,1-.21.18l-9.88,5a.59.59,0,0,1-.29.07l-23.84-.75-18.52,1.1-3.77,4.8h0a21,21,0,0,1-15.18,10.25h-.22l-4-1a.5.5,0,0,0-.12-.09c-.05,0-.11,0-.16-.07-3.75-3.69-7.3-8.75-5.26-18.34h0l2.88-14.89h0v-.07c4.68-10.75,6.75-19,6.68-26.59-.06-8.94-1.12-13.78-4-18.53h0l-5-10.88-10.26-39.7h0c-4.27-13.46-13.56-22.61-27.64-27.18h-.06l-16-7.89L-158.1,2542l-39.72-4.65a.51.51,0,0,1-.34-.17l-1.84-1.79c-11.72-1-17.24-7.72-17.35-21.25v-4.85c-1.82-2.83-2.17-7.3-1.11-14.09,1-8.24,5-13.31,13.13-16.43h0l26.7-11.13h.06c13.53-3.51,24.32-8.83,30.38-15h0l4.91-4,26.62-23,45.16-53.87,4-3.1,16.59-20.85,7.79-13.9,1.87-4.81-.38-46.44c-2-6.14,0-9.29,2-12.32h0l2.89-3.9c1.08-6.39,5.47-9.3,9.4-9.33l34.69-.28c13.08-1.09,25.25,1.93,35.2,8.76L81.49,2288l2.44,1.5c6.87,4.24,12.31,7.59,19.38,10.17,9.39,1,16.75-.42,21.19-4l5.83-7.92c4.16-7.38,12.41-16.49,22.66-25l3.84-6.85c1-3,2-6.13,6.13-7.26l7.81-6.94,15.67-18.93,2.88-3.91c2-5.9,8.54-11.75,16.15-18.5l.7-.62a.66.66,0,0,1,.2-.06.38.38,0,0,1,.17-.08h2.05c9,1.73,14.13-1.34,16.12-9.63l2.93-13a.55.55,0,0,1,.5-.44l57.43-7.4,6.85-3,5.8-4a54.9,54.9,0,0,1,23.95-12.2h.17l13.9.87.09.06h.1c8.76,3.81,15,9.65,20.29,19,9,17.7,18.89,31.34,32,44.25a85.25,85.25,0,0,0,26.66,13.55h.14l19,11.77,50.66,18.39v0h0c3.92,1.92,8,3.93,11,7.87l10.81,4.82c4.94,1,10,3.87,12.19,7a44.33,44.33,0,0,0,24.44,6.58h.17l23.93,6.88c15.69,1,29.51,6.22,41,15.65l10,6.85c11.44,6.54,27.24,9.66,43.4,8.51h0l27.8,1.77,69.72,16.32,7,1.94.11.09s.11,0,.14.06c1.35,1.32,2.76,2.6,4.12,3.85,4.86,4.43,9.44,8.62,11.06,14.14,6.45,11,16.28,25.33,34.8,37.1h0l6.82,5.76h3.76a.64.64,0,0,1,.36.11l13,9.82,23.11,24.7,25.92,21.57L903,2476l2.86,1.87c9,4.4,19.34,5.84,33.47,4.62h.15l22.86,3.79a.55.55,0,0,1,.37.22l3,3.88,6.75,4.74h2.79c3.49,0,5.93,1,7.25,2.86,1.68,2.44,1.47,6.38-.61,11.74l-1.9,9.87c-1.79,12.29,1.78,21.15,10.88,27.13h0l3.87,2.86,5.82.91,48.52-1.37a.66.66,0,0,1,.28,0l2,1h0c7.58,5.32,14.69,7.8,24.6,8.64a.42.42,0,0,0,.12.06.49.49,0,0,1,.17,0l7,4.9a.6.6,0,0,1,.09.15s.1.06.12.12a48.43,48.43,0,0,1,3.2,24.05v.25l-2.93,5-10.82,12-1.9,4.88-1.84,14.83,2.09,17.56,2.82,3.7c10.61,4.2,14.11,11.68,11.32,24.25l-.92,7.94a141,141,0,0,0,4.3,45.41c4,13.67,12.81,19.33,28.33,18.17h4a.64.64,0,0,1,.38.12l9,6.9,33,34.44,4.85,1.89,23.76,7.71,5.75-.06,9.79-4,5-1.06,1.9-1a.52.52,0,0,1,.27-.07h3.07c9.35,1,15.39,6.19,17.47,15.13l1.94,3.77,12.88,9.75a.14.14,0,0,0,0,.11s.09,0,.11.09c2,3.93,6,5.57,13.43,5.51h.06l9.92,1.91h0c4.44,1.06,4.46,3.43,4.52,10.44-1,4.23,1.44,6.86,3.69,8.37l3.88.93,5.05,2c.07,0,.09.09.14.14s.11,0,.14.09l9,13.82,1,2.9c6,3.07,6.15,8.17,4.19,18.32v.1a.42.42,0,0,1-.09.14.53.53,0,0,1-.2.16l-.09.06ZM536.79,2571.15a19.92,19.92,0,0,1-6.9,6h0A19.92,19.92,0,0,0,536.79,2571.15Zm-234.65-73.77a10.44,10.44,0,0,1,.77,4.45A10.44,10.44,0,0,0,302.14,2497.38ZM74.79,2432.44v0c-.13-16.9-6.11-26.55-18.72-29.9C68.68,2405.87,74.66,2415.52,74.79,2432.44Zm1166.94,61.84c-2.41,3.08-3.34,5.42-2.91,7.3.33,1.41,1.38,2.54,3.23,3.45a.63.63,0,0,0,.27.06h0l51.74-1.41,3.92-1c5.1-.09,9.21-3.11,11.27-8.34l8.75-14.84,2.94-3a.58.58,0,0,0,.17-.37l1.84-19.87v-.14l-2.1-12.88a.52.52,0,0,0-.1-.23l-4-5.93a.58.58,0,0,0-.44-.24l-31.78-2.73h0c-7.15-.43-12.76.92-16.63,4.1s-6.22,8.48-6.64,15.37c-1.06,4.34.14,7.46,1.21,8.49a45,45,0,0,1,10.87,16.49v4.29l-21.28,1.15h0c-4.25.07-6.33,3.23-8.34,6.27h0l-.06.07Zm-67,192.36a.18.18,0,0,0,.07.17.37.37,0,0,0,.09.2l.17.11c.06,0,.1.1.17.11a39.48,39.48,0,0,0,5.54.39c10.51-.09,18.48-5.24,22.76-14.85v-.17l.93-7.95a.38.38,0,0,0,0-.15l-2.11-14.87a.63.63,0,0,0-.26-.41l-3-2a.62.62,0,0,0-.71,0l-8.89,8-.08.12-10.83,17-3,6.08-1,4v.15Zm161.37-76.78a.7.7,0,0,0-.27-.42l-3-2c-6.28-5.12-15.49-6.89-25.28-4.84-.08,0-.11.08-.18.11s-.12,0-.16.1l-3.79,4.79-36.44,4.24c-4,.05-6.13,1.05-9.26,4.21h0l-5.9,7a.4.4,0,0,0-.1.15l-1.94,5v.16c-.93,10.15,3.14,17.14,11.14,19.26l5.14,27.42a.6.6,0,0,0,.15.31l4,3.93a.15.15,0,0,1,.15.07c.05.07.06.07.11.08a21,21,0,0,0,5.69.75,22.21,22.21,0,0,0,13.59-4.92l11.85-7a.65.65,0,0,0,.18-.15l3-4a.57.57,0,0,0,.11-.33l.77-26.5,2.72-1.84h0c3.23-2.48,8.52-3.92,14.5-4,10.15-.07,14.45-4.15,14.37-13.59v-.06ZM1078,3010.49a.1.1,0,0,0-.07-.09l-6.84-3.83c-3.71-7.08-10.91-9.74-21.43-7.91h0l-6.94,2h0l-3,1h0a5.77,5.77,0,0,0-3.33,4.18,6.71,6.71,0,0,0,2.27,5.7l3.93,3.85,8,17.7a.61.61,0,0,0,.28.29l4.09,2,16.91,4.84h0a10.69,10.69,0,0,0,4.5,1.13,6,6,0,0,0,2.91-.69c2.16-1.12,3.65-3.61,4.19-7.07-.06-8.31-.74-17.56-5.28-23.14C1078,3010.51,1078,3010.51,1078,3010.49Zm226.77-203.15-4.09-6-13-12.79c-3.8-3.73-7.85-4.33-13.55-2-10.55,1.26-16.15,13-16.08,23.51v2c0,2,.47,3.23,1.45,4a4.66,4.66,0,0,0,3.09.87,17.87,17.87,0,0,0,3.09-.38h2.74l8.84,5.77a.34.34,0,0,0,.19.09l9,1.91h.13a.53.53,0,0,0,.32-.1l5.83-4,12.78-3s0-.06.09-.07a.75.75,0,0,0,.2-.15.38.38,0,0,0,.09-.13.11.11,0,0,1,0-.09c.79-3.27,1.26-6.92-1.14-9.39Zm-78.86-84.09c-1.86-1.48-4.62-1.72-8.64-.82l-17.73-3.79-6-1.94h-.13c-10.42-1.08-16.79.84-21.37,6.41a14.14,14.14,0,0,0,.12,15.49s.07,0,.09.05a.41.41,0,0,0,.2.19l5,1.94h.06c11.61,2.81,17.56,7.53,20.55,16.27,2.29,9.94,7,14.73,11.28,18.11a.59.59,0,0,0,.36.13h5a.57.57,0,0,0,.5-.31l3.92-7a.49.49,0,0,0,.06-.29v-6c-.07-9.71,2.81-17.62,8.57-23.47v-.12a.62.62,0,0,0,.12-.19l1-5v-.07h0C1228.81,2727.71,1227.92,2724.84,1225.91,2723.25Zm-26.6,226.58c-5.68-.9-8.21-.09-9.4,3.08l-39.32,2.26h0a.53.53,0,0,0-.21.11.28.28,0,0,0-.16.12h0c-1.93,2.93-2.38,5.67-1.28,7.7s3.52,3.07,6.7,3.07l8.71,2.82,2.85,3.72.94,1.87.06,6.8a.58.58,0,0,0,.58.58h0c5.8,0,10.92-2.81,15.21-8.2l3.87-3c6-2.13,10-9,12-20.33a.65.65,0,0,0-.11-.45A.54.54,0,0,0,1199.31,2949.83Zm123-5.78a.59.59,0,0,0,.32-.17l3.94-4a.57.57,0,0,0,.15-.5l-1-6.94h0c-1.11-6.32-6.43-10.37-13.45-10.3h0c-4.31-.7-10.11-.84-11.47,5.25l-2.66,1.81-23.77,1.2-4,1a.41.41,0,0,0-.25.15l-40.4,38a.59.59,0,0,0,0,.83.56.56,0,0,0,.47.17l15.74-2.09,17.78,4.78,6,1.94a.61.61,0,0,0,.19,0h0l14.87-1.11a.55.55,0,0,0,.44-.26l4.91-7v-.13h0c2.58-9.7,9.14-16.06,21.27-20.59ZM933,3626.25h0l.94-6h0a3.31,3.31,0,0,1,1.2-2.51c1.61-1.34,4.66-1.69,8.38-1a.58.58,0,0,1,.48.57c0,2.66.76,3.39,3.41,3.38l8.94-.08,4.11,1v0h.07a9.31,9.31,0,0,1,5.2,5.73c1,3.28,0,7.28-2.79,11.85l-.93,3.91a.6.6,0,0,1-.52.44l-9.91,1.08-8.08-.93h-.11C935.16,3641,931.94,3635.58,933,3626.25Zm103,184.35c.87,3-.19,7-3,11.64l-3.89,9.93c-1.89,8.65-8.52,14.27-18.23,15.4-9.28,3.2-13.11,9.35-11.26,18.25.84,6.17,2.55,15.08,8,21.5a1.17,1.17,0,0,1,0,.2.37.37,0,0,1,.08.18v3c1,4.57.32,8.39-2,10.72a8.46,8.46,0,0,1-6,2.3,14.37,14.37,0,0,1-3.46-.42c-11.2-2.16-18.68-6.75-24.22-14.85l-2.83-1.86-18.82-5.77-4.91-.94h-.13c-8.46-4.14-13.27-9.24-14.33-15.19v-.05l-3.26-34.7v-.22l7.72-25.77v-3.66l-17.89-20.54a.72.72,0,0,1-.13-.28l-2.08-10.9-4.22-30.76h0c0-6.45,1.6-10.48,5-12.33l2.9-4.91,7-7.13h.09s0,0,.06-.08h0l3.92-2,5-2h.12l5.94-1.05h.18c7,1,12.17,5.71,16.41,15l29.88,29.41,6.92,3.88.12.09,7,6.83c4.5,1.32,5.15,8,4.29,13.44.05,4.81.08,8.67,3,13.47a.49.49,0,0,1,.06.17c2.09,8,9.27,12.47,15.48,13.33h2.93a.61.61,0,0,1,.3.08l5,3h0A6.24,6.24,0,0,1,1036,3810.6Zm1218.24-583.34,3.9,3.82,17.06,24.68.12.13,4,3a.49.49,0,0,0,.17.06l.08,0h.1a11,11,0,0,0,1.71.14,7.61,7.61,0,0,0,5.08-1.83c2.41-2.05,3.66-5.82,3.62-10.88v-.21l-4-10.78-.12-16.63c4.46-8.27,5.91-16.92,4.72-28v-.2l-2-3.95a.63.63,0,0,0-.38-.3l-3.94-.95-3-1-10-2.9h-.09l-.22.05a.37.37,0,0,0-.18.08h-.08c-4.4,4.46-5,11.29-5,18l-3.51,2.67c-9.5-1.94-14.46.54-18,3.26h0l-.13.18a1.43,1.43,0,0,0-.08.22h0v3C2244,3217.89,2247,3223.18,2254.24,3227.26ZM1938.69,3121.1c1.07,6.11.3,10.8-2.32,13.92s-6.94,4.66-13,4.72-9.27-2-13.36-6h0l-26-25.58-9.83-5.79c-3.84-1-5.44-4.83-4.35-10.52-.08-8.36,2.49-13.9,8.07-17.3l7.9-5,1.87-1.92,16.82-13.1h.1a.39.39,0,0,1,.21-.06h.31l3.86,1.9h1.84l19,2.83a.58.58,0,0,1,.25.09l2.89,1.89,12.78,1.85a.37.37,0,0,0,.12.07h.13c3.34,2.21,5.3,6.61,6.33,14.29h0v1l1.12,16.83h0c0,5.87-.85,9.51-5.47,9.56C1939.91,3105.75,1937.57,3109.87,1938.69,3121.1Zm-19.14,17.14c-3.41-.69-5.77-2.45-8.73-5.37h0C1913.78,3135.79,1916.14,3137.55,1919.55,3138.24Zm125.7,137.42A12.71,12.71,0,0,1,2049,3285c0,3.08,1.07,5.44,3,6.68a6.5,6.5,0,0,0,3.64,1,13.08,13.08,0,0,0,5.14-1.25h0l2.91-1a.6.6,0,0,0,.27-.2l10.74-13.9,7.83-5a2.39,2.39,0,0,0,.22-.23l3.9-8V3263c2-10.41.74-17.37-4.27-23.28a.2.2,0,0,1-.15-.07c-.05-.07-.06-.09-.13-.1l-2.8-.92c-3-3.89-4.79-6.74-4.85-14.26,2-6.14-.13-10.24-2.18-14.22h0a.15.15,0,0,0-.07-.16l-5-4.93a.59.59,0,0,0-.27-.14l-4-1h-.13a10.4,10.4,0,0,1-9.45-5.56.1.1,0,0,1-.08-.06.36.36,0,0,0-.16-.14.46.46,0,0,0-.19-.08.17.17,0,0,0-.1,0l-8.81.08-8.92-1.91h0c-5.66-1.07-8.33-5.75-7.59-13.19v-.32l-2-4-.06-.07a.46.46,0,0,0-.18-.13.38.38,0,0,0-.17-.08.22.22,0,0,0-.11-.05h-4c-3.31,0-7.3.67-8.45,5.47l-1,4v.15c.08,8.2,3.24,14.44,10.29,20.22h.08l7.84,3.85,4.64,6.36c-1.8,1.71-3.78,2.7-8.35,4.56a.48.48,0,0,1-.08.1h-.11l-1,1v.07h0c-4.6,7-1,11.33,3.15,14.61l9,9.8c2.84,3.74,3.9,9.57,3,16.49,0,4.35.61,9.31,5.26,10.57Zm-44.65,143.12a.17.17,0,0,1,.16.06l.11.1,13.92,3.84h.17a.5.5,0,0,0,.29-.09l4.94-3h0c8-5.83,7.82-16.72,7-24.41l-.06-.11v-.08l-2-4c-2.07-4.06-7-6.19-14.3-6.17l-4.84-2.84a.56.56,0,0,0-.65,0c-2.46,1.85-8.13,7-8.08,14.41v2.94C1995.4,3408.55,1996.44,3414.67,2000.6,3418.78ZM1955.78,3402c-1.84,8.7-3.79,17.72-1.73,27.5.06,7.5-1.18,15.67-3.79,25.13h-.06s0,.16-.1.21l-15.76,15a.57.57,0,0,1-.27.13l-15.76,4.08c-5.77,4.36-12.36,6.41-21.3,6.49-2.08,0-4.3-.08-6.65-.29h-.2l-3-1c-.06,0-.11-.1-.16-.13s-.09,0-.13-.07a18.43,18.43,0,0,0-13.4-6.6l-5.77,2c-9.21,4.18-14.84,9.33-19.44,17.78h-.09a.53.53,0,0,1-.16.2l-2,1a.55.55,0,0,1-.25.07l-34.73.27h-.11c-3.33-.52-5.62-1.7-6.8-3.47a6.16,6.16,0,0,1-.71-5l.88-15.87v-2.94a.61.61,0,0,1,.11-.35l2.94-4h.07c.07,0,0,0,0-.06,5-4.1,7.64-10.13,7.57-17.46l-2.14-22.76h0c0-3.42,2.34-5.57,4.53-5.59h.17l11.86,3.85,27.72.77a.56.56,0,0,1,.55.47l6.2,27.72h0c.89,5.07,3.24,7.41,7.4,7.38l13.86-1.1h5c4.07,0,5.33-2,5.3-8.23l-5.9-9.64-16.88-12.7-5-3.93-6.06-5.94s0-.1-.06-.13a.45.45,0,0,1-.12-.21c-1-6.76-.22-9.86,1.94-14.26a.59.59,0,0,1,.34-.3l3-1h0c4.4-1.14,8.17-.84,10.92.86a8.23,8.23,0,0,1,3.73,5.43c4.13,10,11.26,14.26,22.33,13.25h0l15.72-1.11,2.64-1.8,2.87-8.77.92-4.88h0c0-4.93,4.53-7.47,13.4-7.54h2.71a6.51,6.51,0,0,0,2-4.89c-.13-2.51-1.93-5.25-5.19-7.92l-3-1.94a.17.17,0,0,0-.09-.14c-.09-.05-.07,0-.07,0-3.5-5.66-3.88-12-1.25-19.27l.92-8.88,1-3.1a.56.56,0,0,1,.21-.29l3.78-2.87.91-3.79a.74.74,0,0,1,.14-.28l2-2,4-3.08a.7.7,0,0,1,.35-.12l24.81-.2,5.1,1a.4.4,0,0,1,.23.1l4,2.94h0c5.72,5.63,6.59,12.87,2.25,18.51l-1.93,5.89h0a.21.21,0,0,1,0,.11c-3.32,5.08-4.78,10.49-4.73,17.57v.3l-4.88,9a.51.51,0,0,1-.24.22l-6.89,4h-.15C1960.71,3396.35,1956.74,3399.15,1955.78,3402Zm325.1,80.64c-2.09-6.25.09-11.42,6.17-14.52l3.74-1.92,8.65-20.61v-1.86a.57.57,0,0,1,.54-.58l15.88-1.13,12.66-4a34.56,34.56,0,0,0,5.27-4.31c2.67-2.46,5.19-4.77,7.82-4.79,2.68-.57,4.68-.49,6.22.27,1.7.83,2.78,2.49,3.33,5.09v.07h0v2.71c2.85,1.6,3.58,4.42,2,8.42-1.91,7.92-5.83,14.07-11,17.24L2293.75,3492l-2.85,2.91s-.11,0-.15.07a.61.61,0,0,1-.14.07h-.12a13.78,13.78,0,0,1-2.39.27,7.57,7.57,0,0,1-4.9-1.51,6.45,6.45,0,0,1-2.28-5.22Zm69.45-32.07c-2.07,5.06-5.09,8.93-8.8,11.18h0c3.71-2.21,6.73-6.08,8.8-11.14ZM2205.83,3509v4l1.1,14.85v.22l-1,3a.56.56,0,0,1-.46.41l-12.89,2.08h-3.08a.62.62,0,0,1-.27,0c-8.82-4.33-13.4-9.68-16.3-19l-1.95-3.82-6.78-5.72-10.83-2.87a.57.57,0,0,1-.22-.11l-5-3.92a.57.57,0,0,1-.21-.46v-5.92c-1.06-7.86-.14-11.08,2-14.26,0-.06.09-.06.13-.1a.63.63,0,0,1,.2-.13.61.61,0,0,1,.19,0h.2l13.87,5.81c4.28,0,8.35,3.2,9.22,4a.06.06,0,0,1,0,.06h0l4.9,6.74,6.77,1.88,9.85.88a.6.6,0,0,1,.19.06l4,2a.61.61,0,0,1,.24.21l6,9.88A.48.48,0,0,1,2205.83,3509Zm-56.67-11.73v-5.69h0Zm-408-104.57a3.29,3.29,0,0,0,1.26,2.81,3.4,3.4,0,0,0,1.89.48,9.84,9.84,0,0,0,3.5-.86l11.86-1.07a.7.7,0,0,0,.37-.17l9.78-9.95c1.83-.93,7.26-4.14,6.1-8.65-2.31-6.72-10-9.14-19.65-6.16h0l-13.86,5.08a.51.51,0,0,0-.35.35l-2,6a1,1,0,0,0,0,.24l1.09,11.9ZM3538.78,4411.79h-.05l-9.94-1.91h-2l-2.89-.94a.4.4,0,0,0-.34,0l-4,1c-3.83,1-7,2-10.2,5.26-2.91,3.92-5.86,8-4.09,13l-4.39,2.67-20.6-1.79h0c-5.3-1-7.44,1.18-10.42,4.21l-4.93,5h-.06c-4.93,5-8.83,9-11.78,15l-5.94,8.08-2,4-6.82,15.93a.45.45,0,0,0,0,.23v5a.81.81,0,0,0,0,.22l7.08,16.82a.7.7,0,0,0,.29.3l2,1a1.22,1.22,0,0,0,.27,0h.07c19.85-2.24,33.25-12.09,39.83-29.24l1.78-.89c8.25-2.16,13-6.33,15-13.1l12.59-4a.58.58,0,0,0,.24-.14l3-3h0c3.34-4.24,8.39-9.73,13.56-11.85h0l3.95-2a.36.36,0,0,0,.16-.11l5.9-6a.67.67,0,0,0,.18-.44v-3.92C3546.38,4419.24,3544.74,4413.72,3538.78,4411.79Z" style="fill: none;stroke: #0a1622;stroke-miterlimit: 10"/>
      </g>
    </g>
  </g>
</svg>
